<?xml version="1.0" encoding="utf-8"?>
<!-- Generator: Adobe Illustrator 22.0.1, SVG Export Plug-In . SVG Version: 6.00 Build 0)  -->
<svg version="1.1" id="Layer_1" xmlns="http://www.w3.org/2000/svg" xmlns:xlink="http://www.w3.org/1999/xlink" x="0px" y="0px"
	 viewBox="0 0 1964.4 671" style="enable-background:new 0 0 1964.4 671;" xml:space="preserve">
<style type="text/css">
	.st0{fill:#CE701A;}
	.st1{fill:#F9AB2B;}
	.st2{fill:#FFFFFF;}
	.st3{fill:#AFAFAF;}
	.st4{fill:#7F4B2E;}
</style>
<path class="st0" d="M1957.5,197.5c3,24.3-6.1,27.3-12.2,21.3s-24.3-9.1-39.5-9.1c-7.1,13.4-19.2,22.3-32.8,28.2
	c-7.8,3.4-16.1,5.8-24.2,7.6c-0.2,0-0.4,0.1-0.7,0.1c0,0-0.1,0-0.1,0c-0.1,0-0.2,0-0.3,0.1c-0.2,0-0.3,0.1-0.4,0.1
	c-0.4,0.1-0.7,0.1-1.1,0.2c-0.4,0.1-0.9,0.2-1.3,0.3c-0.4,0.1-0.9,0.2-1.3,0.2c-1.7,0.3-3.3,0.6-4.9,0.8c-0.5,0.1-1.1,0.2-1.6,0.2
	c-0.4,0.1-0.8,0.1-1.2,0.2c-0.1,0-0.2,0-0.4,0c-0.4,0.1-0.8,0.1-1.2,0.2c-0.5,0.1-0.9,0.1-1.4,0.2c-1.2,0.1-2.3,0.3-3.4,0.4
	c-0.3,0-0.7,0.1-1,0.1c-0.4,0-0.7,0.1-1.1,0.1c-0.3,0-0.6,0.1-0.9,0.1c-0.5,0-1,0.1-1.5,0.1c-0.2,0-0.5,0-0.7,0
	c-0.7,0-1.3,0.1-2,0.1c-0.6,0-1.2,0.1-1.8,0.1c-0.5,0-1,0-1.5,0.1c-0.5,0-1,0-1.5,0.1c-0.2,0-0.4,0-0.6,0c-0.2,0-0.4,0-0.6,0
	c6.3,0.6,18.7,1.5,33.1,0.5c1.7,13,2.5,26.3,2.5,39.7c0,46.8-10.3,91.1-28.8,130.9c-10.6,22.9-24,44.3-39.6,63.7
	c-11.6,15.7-24.2,30.6-37.6,44.6c-50.6,52.9-113.7,93.8-184.6,117.9c55.4-20.9,103.2-57.3,138.1-103.9c7.3-9.7,14-19.9,20.1-30.5
	c26.1-45.2,41.1-97.7,41.1-153.7c0-73.6-25.8-141.1-68.9-194c-0.7-1.2-1.5-2.3-2.3-3.4c-0.2,0-0.3,0.1-0.5,0.1
	c-4.7,1-8.6,1.4-11.8,1.4c-14.5,0-14.5-8.9-14.5-13.8c0-2.1,2.8-4.8,7.3-8.3c1.9-1.5,4.2-3.2,6.6-4.9c8.4-6.1,19.3-13.9,28.6-23.2
	c7.4-7.4,16.8-10.3,27.3-10.3c15.5,0,33.6,6.1,51.6,13.3c18.2,7.3,45.2,10.2,63.9,11.4c8.2,0.5,14.8,0.7,18.4,0.8c1.8,0,2.8,0,2.8,0
	c48.2,1.8,71.3,7.8,82.7,16.7c8,6.3,10.3,14,11.5,22.8C1966.6,188.4,1954.4,173.2,1957.5,197.5z"/>
<path class="st1" d="M1856.2,598l-110.3-69.1c-50.6,52.9-113.7,93.8-184.6,117.9c55.4-20.9,103.2-57.3,138.1-103.9
	c7.3-9.7,14-19.9,20.1-30.5c26.1-45.2,41.1-97.7,41.1-153.7c0-73.6-25.8-141.1-68.9-194c1.4,2.1,2.7,4.2,4,6.3
	c5,8.4,9.5,17.1,13.3,26.2c1.8,4.3,3.5,8.8,5.1,13.3c7.4,21.5,11.5,44.7,11.5,68.7c0,0.4,0,0.9,0,1.3c0.1,2.1,0.1,4.3,0.1,6.5
	c0,7.3-0.3,14.6-0.9,21.8c0,0.4-0.1,0.7-0.1,1.1v0c-2.9,33.2-12.2,64.7-26.5,93.1c-3.4,6.8-7.2,13.5-11.2,19.9
	c-45.5,73.2-126.6,121.9-219.1,121.9c-16.2,0-32-1.5-47.4-4.4c-20-3.7-39.2-9.7-57.3-17.8c-59.1-26.3-98.6-83.8-99.6-148.5
	c0-0.9,0-1.8,0-2.8c0-93.6,75.9-169.5,169.5-169.5c93.8,0,170.1,76.9,169.5,170.7c-0.2,27-6.7,52.5-18.1,75
	c-2.3,4.5-4.7,8.8-7.3,13.1c-5.2,8.4-11.2,16.3-17.7,23.6c16.6-6.8,32.1-15.6,46.2-26.1c51.5-38.4,84.9-99.8,84.9-169
	c0-29.1-5.9-56.8-16.6-82c0-0.1-0.1-0.2-0.1-0.3c-7.9-18.6-19.5-35.4-34.1-49.4c-53.7-51.7-126.7-83.6-207.2-83.6
	c-60.1,0-116,17.8-162.9,48.3c-1.6,1-3.1,2-4.6,3.1c-19.4,13.1-37.1,28.5-52.9,45.8c-7.8,8.5-15.1,17.5-21.9,26.9c0,0,0,0,0,0
	c-4.7,6.5-9.1,13.2-13.3,20c-15.2,25.2-26.9,52.8-34.2,82.1c0,0.2-0.1,0.4-0.1,0.6c-5.5,22.9-8.4,46.8-8.4,71.4
	c0.5,165,133.8,298,298.8,298c3.8,0,7.6-0.1,11.4-0.2h390.9C1874.6,669.8,1889.3,618.7,1856.2,598z"/>
<circle class="st2" cx="1350.2" cy="83.6" r="61.1"/>
<circle class="st2" cx="1501.3" cy="83.6" r="61.1"/>
<circle class="st0" cx="1346.6" cy="63.4" r="61.1"/>
<circle class="st0" cx="1503.3" cy="63.4" r="61.1"/>
<g>
	<path class="st3" d="M341.1,616.1c-29.4-8.3-46.7-37-46.7-68.2c0-41.8,20.6-73.5,65.2-73.5c37.5,0,61.7,27.7,61.7,70.1
		c0,38.4-23.4,65.2-49.5,68.2c16.4,5.8,35.1,7.6,53.4,8.3v6.5c0,4.9-4.6,8.3-9.2,8.3C394.3,635.8,361.4,626.7,341.1,616.1z
		 M356.3,491.5c-32.6,0-43.2,28-43.2,52.9c0,36.8,17.1,56.9,46.5,56.9c25.7,0,43-21,43-53.9C402.6,509.1,388.5,491.5,356.3,491.5z"
		/>
	<path class="st3" d="M494.1,618.2c-21.5,0-40.2-12.5-40.2-31.2c0-22.7,17.6-34.9,49-34.9H517v-4.9c0-15.5-7.6-21.7-24.7-21.7
		c-15.7,0-27.3,6-33.3,14.3h-1.2v-8.6c0-9.7,12.7-22.2,36.3-22.2c26.6,0,40.9,13.9,40.9,39.5v32.8
		C535.1,602.7,523.5,618.2,494.1,618.2z M517.3,567.1h-14.3c-21,0-30.8,6.5-30.8,18c0,9.2,9.2,16.4,22.7,16.4
		c16,0,22.4-6.2,22.4-21.5V567.1z"/>
	<path class="st3" d="M677.7,618c-7.6,0-10.9-0.7-13.4-5.3c-9.7-16.4-23.1-46-25.9-68.7c-3.9,22-18.3,58.7-29.1,74.2h-3.7
		c-3.7,0-6.9-1.6-9.2-5.5c-17.1-29.6-29.6-66.4-34.2-101.7h9.5c6.5,0,10.4,5.1,11.1,10.2c3.5,22.7,10.4,48.3,22.2,72.4
		c13.4-25,21.5-56.2,27.1-79.8h5.5c6.5,0,10.6,4.4,12,10.6c4.6,21.7,12.5,48.1,23.6,69.1c10.6-20.3,22.7-60.3,24.3-82.5h5.5
		c5.8,0,9.7,3.2,9.7,9C710.5,553.9,692.7,594.1,677.7,618z"/>
	<path class="st3" d="M774.8,618.2c-21.5,0-40.2-12.5-40.2-31.2c0-22.7,17.6-34.9,49-34.9h14.1v-4.9c0-15.5-7.6-21.7-24.7-21.7
		c-15.7,0-27.3,6-33.3,14.3h-1.2v-8.6c0-9.7,12.7-22.2,36.3-22.2c26.6,0,40.9,13.9,40.9,39.5v32.8
		C815.7,602.7,804.2,618.2,774.8,618.2z M797.9,567.1h-14.3c-21,0-30.8,6.5-30.8,18c0,9.2,9.2,16.4,22.7,16.4
		c16,0,22.4-6.2,22.4-21.5V567.1z"/>
	<path class="st3" d="M908.5,496.8c-4.9-4.2-9.7-5.3-15.7-5.3c-13.9,0-19.4,6.2-19.4,21.5v12.9h31.2v6.5c0,4.9-3.9,9.5-11.8,9.5
		h-19.7v74.2h-6.5c-7.9,0-11.1-5.1-11.1-12.7v-92.5c0-18.5,12.9-36.3,34.7-36.3c12.7,0,19.2,7.2,19.2,12.7v9.5H908.5z"/>
	<path class="st3" d="M944.5,496.3c-6.5,0-12-5.3-12-12s5.5-12.5,12-12.5c6.7,0,12,5.8,12,12.5S951.2,496.3,944.5,496.3z M966.7,617
		c-20.8,0-31.4-10.2-31.4-31.2v-74.9h5.3c6.2,0,12.5,4.9,12.5,14.1v58.3c0,13.2,6.5,17.3,16.4,17.3h7.6v5.8
		C977.1,613.1,973,617,966.7,617z"/>
	<path class="st3" d="M1036.8,616.8c-20.8,0-31.9-9.9-31.9-31.2V469.5h5.5c7.2,0,12.5,4.6,12.5,13.9v100.1
		c0,13.2,6.7,16.9,16.6,16.9h11.6v6C1051.1,613.6,1046.3,616.8,1036.8,616.8z"/>
</g>
<g>
	<path class="st4" d="M369,165.5c-60.5,0-91.1,41.5-91.1,88.9c0,31,9.1,50.3,27,61.6c0,0-8.4-1.8-21.1-1.8h-23.3H255h-36.4h-5.5
		h-33.5V83.9h-33.5v238.2c0,57.9-24,76.1-53.2,76.1c-28.8,0-59.4-16-59.4-78.3c0-23.7,3.3-48.4,10.2-72.5L9.2,254
		c-5.8,21.5-9.1,45.5-9.1,69.2c0,74.7,39.3,101.6,89.6,101.6c47,0,82-25.1,88.9-84.1h34.6h5.5H255h5.5H447v-93.6
		C447,195.4,421.1,165.5,369,165.5z M414.2,314.1h-36.1c-46.6,0-66.3-20-66.3-61.6c0-36.4,20.4-60.5,54.3-60.5
		c30.2,0,48.1,17.1,48.1,60.8V314.1z"/>
	<path class="st4" d="M365,129.8c10.9,0,20-8.7,20-19.7c0-11.3-9.1-20-20-20c-10.9,0-19.7,9.1-19.7,20
		C345.4,121.1,354.1,129.8,365,129.8z"/>
	<rect x="512.5" y="83.9" class="st4" width="33.5" height="256.8"/>
	<path class="st4" d="M976.2,136c10.6,0,18.9-8.7,18.9-19.7c0-10.9-8.4-19.3-18.9-19.3c-10.9,0-19.7,8.7-19.7,19.3
		C956.5,127.6,965.3,136,976.2,136z"/>
	<path class="st4" d="M922.3,136c10.6,0,19.3-8.7,19.3-19.7c0-10.9-8.7-19.3-19.3-19.3c-10.9,0-19.3,8.7-19.3,19.3
		C903,127.6,911.4,136,922.3,136z"/>
	<path class="st4" d="M952.9,165.5c-60.5,0-91.1,41.5-91.1,88.9c0,31,9.1,50.3,27,61.6c0,0-8.4-1.8-21.1-1.8h-23.3h-5.5h-36.4H797
		h-35V178.2c0,0-33.1-12.7-73.2-12.7c-62.3,0-91.8,42.3-91.8,90.3c0,51.7,25.5,84.9,95.4,84.9h36.8v8.7c0,41.9-29.9,56.8-69.6,56.8
		c-27.7,0-58.3-6.9-58.3-6.9l-2.2,28c0,0,28.8,5.5,56.8,5.5c78.3,0,106-42.6,106-85.2v-6.9h35h5.5h36.4h5.5h186.5v-93.6
		C1030.8,195.4,1005,165.5,952.9,165.5z M729.3,314.1h-32.1c-47,0-66.3-20.4-66.3-61.9c0-36.1,20.4-60.1,54.3-60.1
		c26.2,0,44.1,8.4,44.1,8.4V314.1z M998,314.1H962c-46.6,0-66.3-20-66.3-61.6c0-36.4,20.4-60.5,54.3-60.5
		c30.2,0,48.1,17.1,48.1,60.8V314.1z"/>
</g>
</svg>
