<svg xmlns="http://www.w3.org/2000/svg" viewBox="0 0 234.15 124.37"><defs><style>.cls-1{fill:#fbaf34;}.cls-2{fill:#80bb01;}</style></defs><g id="Layer_2" data-name="Layer 2"><g id="Layer_1-2" data-name="Layer 1"><path class="cls-1" d="M234.15,33.23v27c0,3.94-2.41,6.33-6.38,6.33H174.11c-4,0-6.46-2.45-6.46-6.43V6.42c0-4,2.43-6.42,6.45-6.42h53.78c3.9,0,6.27,2.38,6.27,6.28ZM227.61,2.9c-8.27,5.71-15.1,12.66-22.77,18.57a291.27,291.27,0,0,0-22.43,18.68,4.36,4.36,0,0,1,0-.63c0-.24.1-.48.16-.72a89.77,89.77,0,0,1,10.56-23.74c.83-1.31.79-2.07-.2-3.19-1.39-1.57-3.27-1.48-4.61.27a43.56,43.56,0,0,0-5.59,10.22c-4.91,12-7.94,24.56-11.14,37.07-.3,1.21.16,1.65,1.35,1.28a5,5,0,0,0,3.36-2.86c1-2.55,1.88-5.15,2.8-7.74.15-.39.29-.78.46-1.21,2.39,1.63,2.39,1.61,5.2,1.1a19.93,19.93,0,0,1,2.68-.26,37.9,37.9,0,0,1,12.8,2.11,97.83,97.83,0,0,1,22.54,10.87,18.72,18.72,0,0,0,2.36,1.09,2.06,2.06,0,0,0-1.28-2.19c-3.92-2.53-7.81-5.13-11.85-7.47a73.72,73.72,0,0,0-17.87-7.82c-2.81-.75-5.66-1.41-8.61-.71l-1.6.38a2.44,2.44,0,0,1,.22-.49,11.45,11.45,0,0,1,1.05-1c4.86-3.76,9.62-7.65,14.61-11.23,6.69-4.8,13.58-9.33,20.34-14a17.38,17.38,0,0,0,7.49-12.61A31.7,31.7,0,0,0,227.61,2.9Z"></path><path class="cls-2" d="M175.73,90.37a9.64,9.64,0,0,0-9.08-7.59c-6.85-.09-13.7,0-20.55-.11a38.65,38.65,0,0,1-8-1.12c-1.44-.34-2.72-1.4-4.06-2.17a1.72,1.72,0,0,1-.66-2.37c2.54-6.52,5.4-12.88,10.12-18.16,2.57-2.86,5.56-5.11,9.74-5,3.45.12,5.32,2.52,4.47,5.89a8,8,0,0,1-.52,1.38c-.75,1.55-1,1.59-2.41.66a4.59,4.59,0,0,0-4.9,0A11.93,11.93,0,0,0,145.33,66c-1.58,2.44-2.94,5-4.42,7.52-.5.83-.27,1.37.6,1.54a30.38,30.38,0,0,0,5.55.94c7.34.12,14.68,0,22,.09a18.51,18.51,0,0,1,7.45,1.32c3.94,1.73,6.24,4.93,7.83,8.75.38.9.62,1.87,1,2.76a2.85,2.85,0,0,1-.5,3.18A10.11,10.11,0,0,1,178.82,96a33.87,33.87,0,0,1-6.92.93q-23.31.12-46.63,0c-2.87,0-5.73-.31-8.25-2a1.13,1.13,0,0,0-1.08.18c-.9.89-1.67,1.92-2.57,2.81a3.72,3.72,0,0,1-1.6,1c-.83.22-1.31-.2-1.21-1.15,1.28-12.8.45-25.64.71-38.47a2.84,2.84,0,0,0-1.1-2.53,4.7,4.7,0,0,1-1.83-4.34,1.45,1.45,0,0,1,.74-1.08c3.52-1,7-2.53,10.76-2.2,1,.09,1.33.3,1.2,1.39a76.13,76.13,0,0,0-.57,7.84c-.07,8.53,0,17.06,0,25.59,0,5.1,1.91,7,7.06,7,5.46,0,10.91,0,16.36,0,8.78,0,17.56,0,26.33,0a39,39,0,0,0,4-.29A9.32,9.32,0,0,0,175.73,90.37Z"></path><path class="cls-2" d="M50.89,74.82c0-.5,0-1.3-.08-1.73-.27-.27-.65-.24-1-.53a7,7,0,0,1-1.77-4.24c.06-.41,0-.76.74-1.09,3.6-1,7.1-2.63,11-2.27.7.06,1.13.09,1.08,1-.94,4.48-.62,8.81-.65,13.28-.09,2.38.09,5-.09,7.35-.43,5.76-3.5,9.4-9.3,10a109.4,109.4,0,0,1-14.71,0c-1.39-.06-2.74-1-4.12-1.47-.41-.14-1-.29-1.31-.1a11.62,11.62,0,0,1-6.29,1.9,107.46,107.46,0,0,1-10.92-.28A15.24,15.24,0,0,1,8.9,95c-.63-.28-1-.36-1.48.19-.81,1-1.63,2-2.5,2.87A2.87,2.87,0,0,1,3.66,99c-1.17.3-1.51,0-1.41-1.21,1-12.94.23-25.91.5-38.86a2.31,2.31,0,0,0-.87-2A4.61,4.61,0,0,1,.05,52.54c.06-.43.44-1.07.79-1.16,3.45-1,6.79-2.5,10.52-2.19,1.07.1,1.5.23,1.34,1.49a62.05,62.05,0,0,0-.52,7.46c-.06,8.74.06,17.48-.07,26.21-.06,4.16,1.68,6.5,6.31,6.67,1.83.07,3.68-.15,5.51-.25a1.54,1.54,0,0,0,1.61-1.52c.11-1.22.31-2.45.33-3.67,0-3.61,0-7.22,0-10.83,0-1.42.28-1.4,1.16-1.76a19,19,0,0,1,7.23-1.13c.72,0,1-.26,1,1.34,0,3.69,0,7.38,0,11.07,0,.54,0,1.07,0,1.6.09,2.61,1.61,4.64,4.19,4.84,3.21.25,6.45.07,9.68,0A1.31,1.31,0,0,0,50.5,89.3C51.27,86.19,50.84,76.82,50.89,74.82Z"></path><path class="cls-2" d="M88.21,90.75c-.32-.4-.64-.79-1-1.2a36.41,36.41,0,0,1-7.71-20.63c-.1-1.77.19-2.32,1.9-2.81S85.12,65.34,87,65c1.16-.21,1.47.38,1.48,1.47a32.36,32.36,0,0,0,4.18,16c1.85,3.26,4.22,6.08,7.72,7.66a14.62,14.62,0,0,0,3.42.91c.75.14.94.48.85,1.18A5.28,5.28,0,0,1,99.19,97c-8.32,0-16.65.06-25,0A46.65,46.65,0,0,1,68,96.15C67,96,66.66,95.39,66.89,94.3a8.86,8.86,0,0,1,3.21-5.37,1.91,1.91,0,0,1,2.17-.28c.58.29,1.25.43,1.81.75C78.51,92,83.34,90.82,88,91.07Z"></path><path class="cls-2" d="M49.51,100.17A4.44,4.44,0,0,1,54,104.62a4.7,4.7,0,0,1-4.62,4.65,4.76,4.76,0,0,1-4.51-4.65A4.44,4.44,0,0,1,49.51,100.17Z"></path><path class="cls-2" d="M38.61,109.34a4.54,4.54,0,0,1-4.54-4.54,4.66,4.66,0,0,1,4.56-4.56,4.49,4.49,0,0,1,4.53,4.65A4.34,4.34,0,0,1,38.61,109.34Z"></path><path class="cls-2" d="M30.9,59.06a4.44,4.44,0,0,1,4.59,4.53A4.51,4.51,0,0,1,31,68a4.38,4.38,0,0,1-4.61-4.51A4.33,4.33,0,0,1,30.9,59.06Z"></path><path class="cls-1" d="M66.71,109.29h1.93v7.2h.06c.4-.57.8-1.1,1.18-1.59l4.57-5.61h2.39l-5.41,6.34,5.84,8.61H75l-4.92-7.35-1.42,1.65v5.7H66.71Z"></path><path class="cls-1" d="M90.69,119.53l-1.55,4.71h-2l5.08-14.95h2.33l5.1,14.95H97.59L96,119.53Zm4.9-1.5-1.46-4.31c-.34-1-.56-1.86-.78-2.73h0c-.23.89-.47,1.8-.76,2.71L91.09,118Z"></path><path class="cls-1" d="M111.17,109.48a28.58,28.58,0,0,1,4.1-.31c2.77,0,4.75.65,6.06,1.87a6.89,6.89,0,0,1,2.1,5.37,7.9,7.9,0,0,1-2.15,5.81c-1.4,1.4-3.7,2.15-6.61,2.15a31.2,31.2,0,0,1-3.5-.18Zm1.93,13.23a13.16,13.16,0,0,0,2,.11c4.12,0,6.36-2.31,6.36-6.35,0-3.52-2-5.77-6-5.77a11,11,0,0,0-2.26.2Z"></path><path class="cls-1" d="M137.19,109.29v14.95h-1.93V109.29Z"></path><path class="cls-1" d="M149.88,124.24V109.29H152l4.79,7.56a42,42,0,0,1,2.68,4.86l0,0c-.18-2-.23-3.82-.23-6.15v-6.25h1.82v14.95h-1.95l-4.75-7.59a46.66,46.66,0,0,1-2.79-5l-.07,0c.11,1.89.16,3.68.16,6.17v6.39Z"></path><path class="cls-1" d="M176.21,119.53l-1.55,4.71h-2l5.08-14.95h2.33l5.1,14.95h-2.06l-1.6-4.71Zm4.9-1.5-1.46-4.31c-.33-1-.55-1.86-.78-2.73h0c-.22.89-.47,1.8-.75,2.71L176.61,118Z"></path></g></g></svg>