<svg id="Layer_1" data-name="Layer 1" xmlns="http://www.w3.org/2000/svg" xmlns:xlink="http://www.w3.org/1999/xlink" viewBox="0 0 649.35 310.26"><defs><style>.cls-1{fill:none;}.cls-2{fill:url(#linear-gradient);}.cls-3{clip-path:url(#clip-path);}.cls-4,.cls-5{fill:#575657;}.cls-5{font-size:65.05px;font-family:Tajawal-Regular, Tajawal;}.cls-6{letter-spacing:-0.06em;}.cls-7{letter-spacing:-0.02em;}.cls-8{clip-path:url(#clip-path-2);}.cls-9{fill:url(#linear-gradient-3);}</style><linearGradient id="linear-gradient" x1="434.06" y1="107.64" x2="621.01" y2="214.83" gradientUnits="userSpaceOnUse"><stop offset="0" stop-color="#480689"/><stop offset="1" stop-color="#d4088c"/></linearGradient><clipPath id="clip-path"><rect class="cls-1" x="-24.19" y="-107.87" width="711.55" height="383.3"/></clipPath><clipPath id="clip-path-2"><path class="cls-2" d="M476.3,118.62a4.12,4.12,0,0,1,1.25-3,4.21,4.21,0,0,1,3-1.25h90.33a3,3,0,0,1,2.76,4.24l-8.57,19.31a3.05,3.05,0,0,1-2.78,1.8h-22.5L525.06,205a3,3,0,0,1-2.94,2.36H494.35a4.22,4.22,0,0,1,0-8.44h15.54a4.11,4.11,0,0,0,3-1.25,4.18,4.18,0,0,0,1.26-3,4.24,4.24,0,0,0-4.23-4.22H482.94a4.22,4.22,0,1,1,0-8.44h26.41a4.23,4.23,0,0,0,0-8.46h-11a4.24,4.24,0,0,1-4.24-4.21,4.29,4.29,0,0,1,4.24-4.24h7.1a4.18,4.18,0,0,0,3-1.21,4.24,4.24,0,0,0-3-7.23h-15a4.21,4.21,0,0,1-4.24-4.22,4.26,4.26,0,0,1,1.23-3,4.19,4.19,0,0,1,3-1.23h22.09v0h3.51a4.29,4.29,0,0,0,4.24-4.24,4.21,4.21,0,0,0-4.24-4.2H473.41a4.23,4.23,0,0,1-4.22-4.23,4.12,4.12,0,0,1,1.23-3,4.23,4.23,0,0,1,3-1.24h16.86a4.22,4.22,0,0,0,3-1.21,4.32,4.32,0,0,0,1.24-3,4.23,4.23,0,0,0-4.23-4.24h-9.73a4.23,4.23,0,0,1-4.24-4.2m38.59-83.75a33.88,33.88,0,0,0-16.53,4.49L424.18,82.2a33.67,33.67,0,0,0-16.78,29.09V197a33.56,33.56,0,0,0,16.78,29.05l74.18,42.86a33.52,33.52,0,0,0,33.58,0l74.18-42.86a33.53,33.53,0,0,0,16.78-28.52V110.75A33.65,33.65,0,0,0,606.12,82.2L531.94,39.36a33.87,33.87,0,0,0-16.51-4.49Z"/></clipPath><linearGradient id="linear-gradient-3" x1="1353.58" y1="-489.19" x2="1354.32" y2="-489.73" gradientTransform="matrix(568.15, 0, 0, -568.15, -768640.07, -277862.8)" gradientUnits="userSpaceOnUse"><stop offset="0.11" stop-color="#480689"/><stop offset="0.4" stop-color="#d4088c"/></linearGradient></defs><g class="cls-3"><path class="cls-4" d="M72.3,148.46q-.47,5.43-5.61,8.81c-3.3,2.18-7.57,3.28-12.78,3.32q-9.72.07-14.68-5.56a15.35,15.35,0,0,1-3.74-10.38,15.69,15.69,0,0,1,2.7-9.36l4.09-.86a17.72,17.72,0,0,0-3,9.87,11.68,11.68,0,0,0,4.05,9.24q3.81,3.32,10.5,3.27,6.87-.06,10.77-3A8.07,8.07,0,0,0,68,148.49l-6.43,0,2-3.92,8.89-.07,0,3.91Zm-19.84,20c0,1.72-.8,2.59-2.44,2.6a2.59,2.59,0,1,1,0-5.17c1.64,0,2.46.84,2.48,2.57m7.25-.06a2.26,2.26,0,0,1-2.5,2.61,2.59,2.59,0,1,1,2.5-2.61m24-31.1q.06,7.18,7,7.13h2.2l0,3.91-2.72,0q-5.67,0-8.55-3.78-2.92,3.87-8.55,3.91l-2.71,0,0-3.91h2.21q6.93-.06,6.88-7.25l-.1-13.69,4.21-2.24Zm-.59-26.88c0,1.77-.8,2.66-2.44,2.67s-2.59-.86-2.61-2.63a2.27,2.27,0,0,1,2.57-2.55,2.21,2.21,0,0,1,2.48,2.51m38.17,22.86a14.33,14.33,0,0,1-4.84,10.95l11.55-.09,0,3.92-14.26.11a16.5,16.5,0,0,1-3.92-.41,16.24,16.24,0,0,1-3.91.47l-14.26.11,0-3.91,11.61-.09a14.44,14.44,0,0,1-5.07-10.88q0-6.12,3.33-9.74a10.77,10.77,0,0,1,8.12-3.29,10.55,10.55,0,0,1,8.93,4.1,14.09,14.09,0,0,1,2.72,8.75m-11.22,10.44a10.67,10.67,0,0,0,5.24-4.12,10.81,10.81,0,0,0,2-6.35,9.89,9.89,0,0,0-2.1-6.58,6.88,6.88,0,0,0-5.54-2.39,6.76,6.76,0,0,0-5.47,2.48,9.86,9.86,0,0,0-2,6.54,11.09,11.09,0,0,0,2.07,6.39,10.45,10.45,0,0,0,5.27,4l.25.06.13-.06Zm-1.58-33.31c0,1.77-.8,2.66-2.44,2.67a2.31,2.31,0,0,1-2.61-2.63,2.26,2.26,0,0,1,2.57-2.54,2.2,2.2,0,0,1,2.48,2.5m7.19-.06c0,1.77-.8,2.66-2.44,2.67s-2.59-.86-2.61-2.63a2.26,2.26,0,0,1,2.57-2.54,2.2,2.2,0,0,1,2.48,2.5M140,136.83q.06,7.18,7,7.13h2.21l0,3.91-2.71,0q-5.69,0-8.55-3.78-2.94,3.87-8.55,3.91l-2.72,0,0-3.92h2.21q6.94-.06,6.89-7.25l-.11-13.69,4.21-2.24Zm-4.68-26.6a2.53,2.53,0,1,1-2.55-2.56,2.27,2.27,0,0,1,2.55,2.56m7.19,0a2.53,2.53,0,1,1-5.05,0c0-1.73.82-2.6,2.51-2.61a2.26,2.26,0,0,1,2.54,2.57M148,147.87l0-3.91,1.76,0q7.2,0,7.14-7.5l-.21-27.13,4.21-2.24.23,29.4A11.34,11.34,0,0,1,158,145a10.82,10.82,0,0,1-7.8,2.9Zm24.54-.19-.3-38.49,4.21-2.24.32,40.69Zm61.94-3.89q0,7.32-4.9,11.65a17.14,17.14,0,0,1-11.39,3.87q-8.21.06-12.66-5.52A16.14,16.14,0,0,1,202,143.41a15.26,15.26,0,0,1,2.7-9.3l4.16-1a17.35,17.35,0,0,0-3,10,12.19,12.19,0,0,0,3.67,9.06,11.83,11.83,0,0,0,8.67,3.27q6.06,0,9.37-3.73a11,11,0,0,0,2.78-7.91l-.27-35.08,4.14-2.24Zm39.05-.81,0,3.91-6.69.05a11.55,11.55,0,0,1-2.62,7.37,12.24,12.24,0,0,1-6.75,4.25,11.81,11.81,0,0,1-3.28.47,15.57,15.57,0,0,1-7.15-1.71l0-3.72a13.54,13.54,0,0,0,6.51,1.71,8.82,8.82,0,0,0,4.53-1.17,8.56,8.56,0,0,0,3.26-3.08,7.52,7.52,0,0,0,1.29-4.08l-5.36-.15q-7-.27-10.51-4.34-2.86-3.45-2.91-9.25-.06-6.81,3.45-10.56a11,11,0,0,1,8.43-3.41c3.66,0,6.46,1,8.42,3.21a11,11,0,0,1,2.58,7.55l.1,13Zm-11-12.47q0-7.45-6.74-7.4a6.9,6.9,0,0,0-5.75,2.67c-1.36,1.75-2,4.21-2,7.36q.08,9.41,9.35,9.77c1.86.12,3.6.17,5.24.15Zm49.63,12.17,2.21,0,0,3.91-2.27,0a23.9,23.9,0,0,1-8.37-1.13,14.87,14.87,0,0,1-5.81-4.19,32.7,32.7,0,0,1-18.63,5.58l-7,.05,0-3.91,7.06-.06q13.75-.1,21.38-9.5-5.7-10.68-13.65-10.62-5.43,0-10.55,5.57l0-4.17q5.13-5.14,10.75-5.19h.13q9.9-.08,17.26,13.24l0,2.59a27.12,27.12,0,0,1-4.13,4.38,11.23,11.23,0,0,0,4.6,2.71,24.61,24.61,0,0,0,7,.74m14.27-7.31q.06,7.2,7,7.14l2.2,0,0,3.92-2.71,0q-5.67,0-8.55-3.79-2.92,3.88-8.55,3.92l-2.71,0,0-3.91,2.21,0q6.93,0,6.88-7.24l-.11-13.7,4.21-2.24Zm-4.69-26.59a2.26,2.26,0,0,1-2.5,2.61c-1.69,0-2.53-.84-2.55-2.57a2.53,2.53,0,1,1,5.05,0m7.19,0a2.52,2.52,0,1,1-2.54-2.57c1.68,0,2.53.84,2.54,2.57m5.47,37.69,0-3.92h1.77q7.19-.06,7.13-7.5l-.21-27.13,4.21-2.24.23,29.4a11.29,11.29,0,0,1-3.09,8.48,10.84,10.84,0,0,1-7.8,2.9Zm24.55-.2-.3-38.48,4.21-2.25.31,40.7Z"/></g><text class="cls-5" transform="translate(86.78 218.34) scale(1.01 1)"><tspan class="cls-6">T</tspan><tspan x="30.12" y="0">echT</tspan><tspan class="cls-7" x="161.85" y="0">r</tspan><tspan x="186.05" y="0">ans</tspan></text><path class="cls-2" d="M476.3,118.62a4.12,4.12,0,0,1,1.25-3,4.21,4.21,0,0,1,3-1.25h90.33a3,3,0,0,1,2.76,4.24l-8.57,19.31a3.05,3.05,0,0,1-2.78,1.8h-22.5L525.06,205a3,3,0,0,1-2.94,2.36H494.35a4.22,4.22,0,0,1,0-8.44h15.54a4.11,4.11,0,0,0,3-1.25,4.18,4.18,0,0,0,1.26-3,4.24,4.24,0,0,0-4.23-4.22H482.94a4.22,4.22,0,1,1,0-8.44h26.41a4.23,4.23,0,0,0,0-8.46h-11a4.24,4.24,0,0,1-4.24-4.21,4.29,4.29,0,0,1,4.24-4.24h7.1a4.18,4.18,0,0,0,3-1.21,4.24,4.24,0,0,0-3-7.23h-15a4.21,4.21,0,0,1-4.24-4.22,4.26,4.26,0,0,1,1.23-3,4.19,4.19,0,0,1,3-1.23h22.09v0h3.51a4.29,4.29,0,0,0,4.24-4.24,4.21,4.21,0,0,0-4.24-4.2H473.41a4.23,4.23,0,0,1-4.22-4.23,4.12,4.12,0,0,1,1.23-3,4.23,4.23,0,0,1,3-1.24h16.86a4.22,4.22,0,0,0,3-1.21,4.32,4.32,0,0,0,1.24-3,4.23,4.23,0,0,0-4.23-4.24h-9.73a4.23,4.23,0,0,1-4.24-4.2m38.59-83.75a33.88,33.88,0,0,0-16.53,4.49L424.18,82.2a33.67,33.67,0,0,0-16.78,29.09V197a33.56,33.56,0,0,0,16.78,29.05l74.18,42.86a33.52,33.52,0,0,0,33.58,0l74.18-42.86a33.53,33.53,0,0,0,16.78-28.52V110.75A33.65,33.65,0,0,0,606.12,82.2L531.94,39.36a33.87,33.87,0,0,0-16.51-4.49Z"/><g class="cls-8"><rect class="cls-9" x="407.4" y="34.87" width="215.5" height="240.05"/></g></svg>