<svg xmlns="http://www.w3.org/2000/svg" width="285.97" height="146.258" viewBox="0 0 285.97 146.258">
  <g id="Group_4" data-name="Group 4" transform="translate(-0.347 94.706)">
    <g id="Group_2" data-name="Group 2" transform="translate(230.2 -94.706)">
      <g id="Group_1" data-name="Group 1">
        <path id="Path_1" data-name="Path 1" d="M119.076-59.046h28.183l13.967-13.967H105.109A13.967,13.967,0,0,0,119.076-59.046Z" transform="translate(-105.109 120.609)" fill="#ba8748"/>
        <path id="Path_2" data-name="Path 2" d="M105.109-80.739v33.628a13.967,13.967,0,0,0,13.967,13.967h0V-94.706Z" transform="translate(-105.109 94.707)" fill="#ba8748"/>
        <rect id="Rectangle_1" data-name="Rectangle 1" width="32.319" height="13.967" transform="translate(23.798 23.798)" fill="#ba8748"/>
        <rect id="Rectangle_2" data-name="Rectangle 2" width="32.319" height="13.967" transform="translate(23.798)" fill="#ba8748"/>
      </g>
    </g>
    <g id="Group_3" data-name="Group 3" transform="translate(0.347 -4.249)">
      <path id="Path_3" data-name="Path 3" d="M11.28-47.236v9.07a.563.563,0,0,0,.178.452.5.5,0,0,0,.4.18h.7v2.567H10.979a2.887,2.887,0,0,1-2.091-.93,4.915,4.915,0,0,1-3.2,1.185A5.029,5.029,0,0,1,2.26-35.974,6.233,6.233,0,0,1,.347-40.759,6.277,6.277,0,0,1,2.109-45.32a5.328,5.328,0,0,1,3.958-1.639,6.706,6.706,0,0,1,2.62.553l1.082-.829ZM8.206-43.989a4.926,4.926,0,0,0-1.687-.327,2.866,2.866,0,0,0-2.242,1,3.752,3.752,0,0,0-.882,2.582,3.861,3.861,0,0,0,.794,2.545,2.615,2.615,0,0,0,2.128.959,4.94,4.94,0,0,0,1.889-.4ZM5.812-52.1a1.568,1.568,0,0,1,1.161.48,1.576,1.576,0,0,1,.476,1.158,1.561,1.561,0,0,1-.476,1.134,1.581,1.581,0,0,1-1.161.476,1.576,1.576,0,0,1-1.158-.476,1.564,1.564,0,0,1-.478-1.134,1.578,1.578,0,0,1,.478-1.158A1.563,1.563,0,0,1,5.812-52.1Zm3.831,0a1.579,1.579,0,0,1,1.161.48,1.576,1.576,0,0,1,.476,1.158,1.561,1.561,0,0,1-.476,1.134,1.592,1.592,0,0,1-1.161.476,1.546,1.546,0,0,1-1.132-.476,1.549,1.549,0,0,1-.48-1.134,1.564,1.564,0,0,1,.48-1.158A1.533,1.533,0,0,1,9.643-52.1Z" transform="translate(-0.347 55.123)" fill="#101e40"/>
      <path id="Path_4" data-name="Path 4" d="M10.5-45.461v2.567H5.835v-2.567Z" transform="translate(6.206 63.051)" fill="#101e40"/>
      <path id="Path_5" data-name="Path 5" d="M15.464-49.573v8.82a2.855,2.855,0,0,1-.654,1.812,2.629,2.629,0,0,1-2.067.957H7.879v-2.567H11.76a.652.652,0,0,0,.478-.2.59.59,0,0,0,.18-.43v-8.39ZM9.948-36.145a1.57,1.57,0,0,1,1.156.48,1.565,1.565,0,0,1,.48,1.161,1.57,1.57,0,0,1-.48,1.158,1.577,1.577,0,0,1-1.156.478,1.561,1.561,0,0,1-1.137-.478A1.585,1.585,0,0,1,8.333-34.5a1.58,1.58,0,0,1,.478-1.161A1.555,1.555,0,0,1,9.948-36.145Zm3.853,0a1.546,1.546,0,0,1,1.15.48,1.6,1.6,0,0,1,.465,1.161,1.608,1.608,0,0,1-.465,1.158,1.552,1.552,0,0,1-1.15.478,1.585,1.585,0,0,1-1.158-.478,1.585,1.585,0,0,1-.478-1.158,1.58,1.58,0,0,1,.478-1.161A1.579,1.579,0,0,1,13.8-36.145Z" transform="translate(8.647 58.141)" fill="#101e40"/>
      <path id="Path_6" data-name="Path 6" d="M21.1-49.573v10.986a6.161,6.161,0,0,1-1.915,4.838,6.9,6.9,0,0,1-3.177,1.586,9.787,9.787,0,0,1-1.889.176c-.217,0-.513-.018-.882-.048L12-33.572v-1.086a9.917,9.917,0,0,0,1.56.127q4.463,0,4.46-4.333V-49.573Z" transform="translate(13.571 58.141)" fill="#101e40"/>
      <path id="Path_7" data-name="Path 7" d="M20.808-52.513V-35.1l-1.562,1.262H17.734V-52.513Z" transform="translate(20.414 54.63)" fill="#101e40"/>
      <path id="Path_8" data-name="Path 8" d="M22.918-49.56a11.348,11.348,0,0,1,1.992-.151A6.2,6.2,0,0,1,29.6-47.846a5.868,5.868,0,0,1,1.588,4.182v3.076a2.616,2.616,0,0,1-.86,1.988,2.543,2.543,0,0,1-1.863.781H20.375v-2.567h7.1a.558.558,0,0,0,.63-.632v-2.343a3.774,3.774,0,0,0-1.058-2.8,4.1,4.1,0,0,0-2.846-1.06,6,6,0,0,0-1.288.1Z" transform="translate(23.567 57.976)" fill="#101e40"/>
      <path id="Path_9" data-name="Path 9" d="M40.478-52.513v15.271a2.6,2.6,0,0,1-.7,1.839,2.56,2.56,0,0,1-2.019.93h-10.1l-1.262-1.562v-1h6.124L28.358-49.413h2.874l4.182,12.372h1.363a.681.681,0,0,0,.5-.2.8.8,0,0,0,.125-.43V-52.513ZM33.727-28.249a2.634,2.634,0,0,1-.43-1.435,2.376,2.376,0,0,1,.643-1.74,2.31,2.31,0,0,1,1.727-.656,4.258,4.258,0,0,1,1.286.228v1.334a3.341,3.341,0,0,0-.932-.149c-.742,0-1.11.4-1.11,1.209a1.351,1.351,0,0,0,.252.805,1.06,1.06,0,0,0,.906.4h1.714v.63l-.6.731H32.717v-1.36Z" transform="translate(30.752 54.63)" fill="#101e40"/>
      <path id="Path_10" data-name="Path 10" d="M37.473-52.513V-35.1l-1.564,1.262H34.4V-52.513Z" transform="translate(40.31 54.63)" fill="#101e40"/>
      <path id="Path_11" data-name="Path 11" d="M61.095-49.2v8.82a2.565,2.565,0,0,1-.656,1.786,2.549,2.549,0,0,1-2.067.983H44.264a4.1,4.1,0,0,1-2.824-1.055,4.338,4.338,0,0,1-1.586-3.48v-3.98l1.562-1.262h1.512v5.242a1.859,1.859,0,0,0,.6,1.435,1.924,1.924,0,0,0,1.336.533H57.389a.559.559,0,0,0,.632-.632V-49.2Zm-12.524-.68a1.575,1.575,0,0,1,1.161.478,1.576,1.576,0,0,1,.476,1.158,1.576,1.576,0,0,1-.476,1.158,1.583,1.583,0,0,1-1.161.478,1.548,1.548,0,0,1-1.132-.478,1.58,1.58,0,0,1-.48-1.158,1.58,1.58,0,0,1,.48-1.158A1.54,1.54,0,0,1,48.571-49.883Zm3.857,0a1.555,1.555,0,0,1,1.134.478,1.576,1.576,0,0,1,.476,1.158,1.576,1.576,0,0,1-.476,1.158,1.564,1.564,0,0,1-1.134.478,1.578,1.578,0,0,1-1.158-.478,1.563,1.563,0,0,1-.48-1.158,1.563,1.563,0,0,1,.48-1.158A1.57,1.57,0,0,1,52.428-49.883Z" transform="translate(46.826 57.771)" fill="#101e40"/>
      <path id="Path_12" data-name="Path 12" d="M54.2-52.513V-35.1l-1.562,1.262H51.12V-52.513Z" transform="translate(60.278 54.63)" fill="#101e40"/>
      <path id="Path_13" data-name="Path 13" d="M61.48-49.573v10.986a6.153,6.153,0,0,1-1.915,4.838,6.881,6.881,0,0,1-3.177,1.586,9.771,9.771,0,0,1-1.889.176c-.217,0-.511-.018-.882-.048l-1.233-1.536v-1.086a9.917,9.917,0,0,0,1.56.127q4.463,0,4.463-4.333V-49.573Z" transform="translate(61.787 58.141)" fill="#101e40"/>
      <path id="Path_14" data-name="Path 14" d="M61.19-52.513v14.841a.547.547,0,0,0,.149.4.533.533,0,0,0,.478.228h.656v2.567H60.837A2.586,2.586,0,0,1,59.02-35.2a2.67,2.67,0,0,1-.906-2.04V-52.513Z" transform="translate(68.63 54.63)" fill="#101e40"/>
      <path id="Path_15" data-name="Path 15" d="M86.757-44.91v9.022H88.04v2.567h-.983l-.834-1.033h-.048a2.664,2.664,0,0,1-2.141,1.033H78.641l-.832-1.033h-.077a2.588,2.588,0,0,1-2.115,1.033H70.2l-.832-1.033h-.075a2.6,2.6,0,0,1-2.117,1.033H60.02v-2.567h6.174a.557.557,0,0,0,.63-.632v-5.492H69.9v5.34c0,.353-.007.614-.024.783h4.761a.559.559,0,0,0,.632-.632v-6.955h3.074v6.727c0,.1-.009.255-.024.456v.4h4.737a.558.558,0,0,0,.63-.632v-8.39ZM74.911-50.455a1.518,1.518,0,0,1,1.145.48,1.586,1.586,0,0,1,.467,1.158,1.546,1.546,0,0,1-.467,1.145,1.545,1.545,0,0,1-1.145.465,1.56,1.56,0,0,1-1.147-.465,1.56,1.56,0,0,1-.465-1.145,1.6,1.6,0,0,1,.465-1.158A1.533,1.533,0,0,1,74.911-50.455Zm1.915-3.023a1.415,1.415,0,0,1,1.058.439,1.48,1.48,0,0,1,.43,1.073,1.44,1.44,0,0,1-.43,1.06,1.437,1.437,0,0,1-1.058.426,1.485,1.485,0,0,1-1.071-.426,1.432,1.432,0,0,1-.441-1.06,1.472,1.472,0,0,1,.441-1.073A1.462,1.462,0,0,1,76.826-53.478Zm1.891,3.023a1.567,1.567,0,0,1,1.158.48,1.578,1.578,0,0,1,.478,1.158,1.564,1.564,0,0,1-.478,1.134,1.58,1.58,0,0,1-1.158.476,1.547,1.547,0,0,1-1.134-.476,1.566,1.566,0,0,1-.48-1.134,1.58,1.58,0,0,1,.48-1.158A1.535,1.535,0,0,1,78.718-50.455Z" transform="translate(70.905 53.478)" fill="#101e40"/>
      <path id="Path_16" data-name="Path 16" d="M80.294-46.556v9.022h1.288v2.567H80.7L79.767-36h-.053a2.66,2.66,0,0,1-2.139,1.033H72.711v-2.567h3.8a.593.593,0,0,0,.5-.2.658.658,0,0,0,.228-.507v-8.313ZM75.157-52.1a1.562,1.562,0,0,1,1.156.48,1.572,1.572,0,0,1,.48,1.158,1.557,1.557,0,0,1-.48,1.134,1.575,1.575,0,0,1-1.156.476A1.581,1.581,0,0,1,74-49.327a1.555,1.555,0,0,1-.478-1.134A1.57,1.57,0,0,1,74-51.62,1.568,1.568,0,0,1,75.157-52.1Zm3.826,0a1.565,1.565,0,0,1,1.161.48,1.58,1.58,0,0,1,.48,1.158,1.566,1.566,0,0,1-.48,1.134,1.578,1.578,0,0,1-1.161.476,1.553,1.553,0,0,1-1.132-.476,1.564,1.564,0,0,1-.478-1.134,1.578,1.578,0,0,1,.478-1.158A1.54,1.54,0,0,1,78.984-52.1Z" transform="translate(86.059 55.123)" fill="#101e40"/>
      <path id="Path_17" data-name="Path 17" d="M103.41-49.573v8.82a2.706,2.706,0,0,1-.8,1.951,2.581,2.581,0,0,1-1.926.818H95.395l-.93-1.033h-.077a2.6,2.6,0,0,1-2.117,1.033H86.978l-.957-1.033h-.075a2.6,2.6,0,0,1-2.117,1.033H76.673v-2.567h6.174a.557.557,0,0,0,.63-.632v-5.492h3.074v5.038c0,.489-.009.849-.026,1.086h4.763a.558.558,0,0,0,.63-.632v-6.955h3.074v6.727c0,.1-.007.255-.024.456v.4H99.7a.557.557,0,0,0,.63-.632v-8.39Z" transform="translate(90.79 58.141)" fill="#101e40"/>
      <path id="Path_18" data-name="Path 18" d="M104.138-52.513V-37.7a5.792,5.792,0,0,1-.026.658h1.31v2.567h-.981l-.832-1.033h-.077a2.513,2.513,0,0,1-1.007.781,2.6,2.6,0,0,1-1.084.252H91.314l-1.262-1.562v-1h6.124L92.018-49.413H94.89l4.184,12.372h1.36a.655.655,0,0,0,.478-.2.711.711,0,0,0,.149-.43V-52.513ZM97.385-28.249a2.65,2.65,0,0,1-.428-1.435,2.384,2.384,0,0,1,.641-1.74,2.315,2.315,0,0,1,1.729-.656,4.245,4.245,0,0,1,1.284.228v1.334a3.338,3.338,0,0,0-.93-.149c-.744,0-1.112.4-1.112,1.209a1.351,1.351,0,0,0,.252.805,1.064,1.064,0,0,0,.908.4h1.714v.63l-.6.731H96.377v-1.36Z" transform="translate(106.765 54.63)" fill="#101e40"/>
      <path id="Path_19" data-name="Path 19" d="M104.562-52.513v15.271a2.61,2.61,0,0,1-.68,1.812,2.507,2.507,0,0,1-2.04.957H96.977v-2.567h3.881a.655.655,0,0,0,.478-.2.588.588,0,0,0,.178-.43V-52.513Z" transform="translate(115.034 54.63)" fill="#101e40"/>
      <path id="Path_20" data-name="Path 20" d="M125.731-52.513v15.271a2.707,2.707,0,0,1-.88,2.04,2.679,2.679,0,0,1-1.843.728H108.9a4.084,4.084,0,0,1-3.1-1.31,4.371,4.371,0,0,1-1.31-3.225v-3.98l1.562-1.262h1.512v5.242a1.909,1.909,0,0,0,.581,1.411,1.84,1.84,0,0,0,1.358.557h12.521a.563.563,0,0,0,.48-.2.587.587,0,0,0,.151-.43V-52.513ZM113.26-44.25a4.29,4.29,0,0,1-.454-1.058,3.5,3.5,0,0,1-.125-.957,3,3,0,0,1,.943-2.258,3.611,3.611,0,0,1,2.484-.792,5.617,5.617,0,0,1,1.334.149v1.439a3.683,3.683,0,0,0-1.033-.151,1.615,1.615,0,0,0-1.812,1.714,2.433,2.433,0,0,0,.3,1.233,1.508,1.508,0,0,0,1.387.68H118.8v.656l-.731.906h-6.676V-44.25Z" transform="translate(124.005 54.63)" fill="#101e40"/>
      <path id="Path_21" data-name="Path 21" d="M118.832-52.513V-35.1l-1.562,1.262h-1.514V-52.513Z" transform="translate(137.457 54.63)" fill="#101e40"/>
      <path id="Path_22" data-name="Path 22" d="M126.116-49.573v10.986A6.153,6.153,0,0,1,124.2-33.75a6.881,6.881,0,0,1-3.177,1.586,9.771,9.771,0,0,1-1.889.176c-.217,0-.511-.018-.882-.048l-1.233-1.536v-1.086a9.918,9.918,0,0,0,1.56.127q4.463,0,4.463-4.333V-49.573Z" transform="translate(138.965 58.141)" fill="#101e40"/>
      <path id="Path_23" data-name="Path 23" d="M124.949-49.56a11.347,11.347,0,0,1,1.992-.151,6.2,6.2,0,0,1,4.686,1.865,5.868,5.868,0,0,1,1.588,4.182v3.076a2.616,2.616,0,0,1-.86,1.988,2.544,2.544,0,0,1-1.863.781h-8.087v-2.567h7.1a.558.558,0,0,0,.63-.632v-2.343a3.774,3.774,0,0,0-1.058-2.8,4.1,4.1,0,0,0-2.846-1.06,6,6,0,0,0-1.288.1Z" transform="translate(145.397 57.976)" fill="#101e40"/>
      <path id="Path_24" data-name="Path 24" d="M129.154-28.249a2.5,2.5,0,0,1-.43-1.435,2.387,2.387,0,0,1,.645-1.74,2.31,2.31,0,0,1,1.727-.656,4.222,4.222,0,0,1,1.284.228v1.334a3.316,3.316,0,0,0-.932-.149q-1.109,0-1.108,1.209a1.224,1.224,0,0,0,.252.805,1.061,1.061,0,0,0,.908.4h1.687v.63l-.579.731h-4.458v-1.36Zm3.53-24.264V-35.1l-1.564,1.262h-1.512V-52.513Z" transform="translate(152.255 54.63)" fill="#101e40"/>
      <path id="Path_25" data-name="Path 25" d="M3.212-28.351v3.572H10.7v2.374H.375V-36.23h9.981v2.376H3.212v3.129H9.836v2.374Z" transform="translate(-0.314 74.073)" fill="#101e40"/>
      <path id="Path_26" data-name="Path 26" d="M15.5-36.23v13.825H12.831v-1.139a3.165,3.165,0,0,1-2.8,1.354,3.844,3.844,0,0,1-3.26-1.7A5.936,5.936,0,0,1,5.707-27.5a5.791,5.791,0,0,1,1.354-4.052,3.813,3.813,0,0,1,2.951-1.3,3.16,3.16,0,0,1,2.819,1.431V-36.23Zm-4.884,5.562a1.9,1.9,0,0,0-1.624.869,3.849,3.849,0,0,0-.617,2.28,3.808,3.808,0,0,0,.608,2.249,1.9,1.9,0,0,0,1.632.858,1.9,1.9,0,0,0,1.63-.851,3.783,3.783,0,0,0,.608-2.255,3.843,3.843,0,0,0-.619-2.291A1.912,1.912,0,0,0,10.613-30.668Z" transform="translate(6.053 74.073)" fill="#101e40"/>
      <path id="Path_27" data-name="Path 27" d="M11.311-34.475h2.666v1.948a2.614,2.614,0,0,1,2.857-2.163h.522l.02,2.626a5.346,5.346,0,0,0-1-.1,2.626,2.626,0,0,0-1.814.483,2.619,2.619,0,0,0-.579,1.951v5.483H11.311Z" transform="translate(12.745 75.912)" fill="#101e40"/>
      <path id="Path_28" data-name="Path 28" d="M23.788-24.92v.676h-2.9a1.741,1.741,0,0,1-.309-1.042,3.812,3.812,0,0,1-3.089,1.257A3.223,3.223,0,0,1,15.1-24.94a2.727,2.727,0,0,1-.737-2.025,2.849,2.849,0,0,1,1.547-2.743,10.4,10.4,0,0,1,2.607-.693l2.084-.386-.02-.733c-.011-.682-.529-1.027-1.542-1.027a2.394,2.394,0,0,0-1.382.3,1.542,1.542,0,0,0-.491,1.093H14.62q.23-3.535,4.362-3.537a5.221,5.221,0,0,1,3.282.814,2.9,2.9,0,0,1,.908,2.334v5.715A.866.866,0,0,0,23.788-24.92ZM20.6-29.185l-1.948.443a2.757,2.757,0,0,0-1.237.559,1.2,1.2,0,0,0-.386.906c0,.735.478,1.1,1.431,1.1,1.373,0,2.084-.753,2.122-2.26Z" transform="translate(16.391 75.912)" fill="#101e40"/>
      <path id="Path_29" data-name="Path 29" d="M28.592-24.92v.676H25.7a1.726,1.726,0,0,1-.309-1.042A3.818,3.818,0,0,1,22.3-24.029,3.232,3.232,0,0,1,19.9-24.94a2.726,2.726,0,0,1-.735-2.025,2.849,2.849,0,0,1,1.547-2.743,10.373,10.373,0,0,1,2.6-.693l2.087-.386-.02-.733c-.011-.682-.529-1.027-1.542-1.027a2.389,2.389,0,0,0-1.382.3,1.542,1.542,0,0,0-.491,1.093H19.421q.23-3.535,4.362-3.537a5.216,5.216,0,0,1,3.282.814,2.893,2.893,0,0,1,.911,2.334v5.715A.866.866,0,0,0,28.592-24.92Zm-3.186-4.265-1.951.443a2.758,2.758,0,0,0-1.235.559,1.2,1.2,0,0,0-.386.906q0,1.1,1.428,1.1c1.376,0,2.087-.753,2.124-2.26Z" transform="translate(22.127 75.912)" fill="#101e40"/>
      <path id="Path_30" data-name="Path 30" d="M26.948-28.658l3.339-3.978h3.032l-3.5,3.862,3.725,6.369H30.443L27.99-26.923l-1.042,1.161v3.357H24.282V-36.23h2.666Z" transform="translate(28.233 74.073)" fill="#101e40"/>
      <path id="Path_31" data-name="Path 31" d="M33.491-33.156v10.751H30.654V-36.23H34.9l2.512,11.008L39.825-36.23H44.11v13.825H41.271V-33.156L38.822-22.405H35.983Z" transform="translate(35.841 74.073)" fill="#101e40"/>
      <path id="Path_32" data-name="Path 32" d="M47.08-24.92v.676h-2.9a1.741,1.741,0,0,1-.309-1.042,3.812,3.812,0,0,1-3.089,1.257,3.223,3.223,0,0,1-2.392-.911,2.727,2.727,0,0,1-.737-2.025A2.849,2.849,0,0,1,39.2-29.707,10.4,10.4,0,0,1,41.81-30.4l2.084-.386-.02-.733c-.011-.682-.529-1.027-1.542-1.027a2.394,2.394,0,0,0-1.382.3,1.542,1.542,0,0,0-.491,1.093H37.912q.23-3.535,4.362-3.537a5.221,5.221,0,0,1,3.282.814,2.9,2.9,0,0,1,.908,2.334v5.715A.866.866,0,0,0,47.08-24.92Zm-3.186-4.265-1.948.443a2.757,2.757,0,0,0-1.237.559,1.207,1.207,0,0,0-.386.906c0,.735.478,1.1,1.431,1.1q2.064,0,2.122-2.26Z" transform="translate(44.203 75.912)" fill="#101e40"/>
      <path id="Path_33" data-name="Path 33" d="M42.769-34.475h2.666v1.448a3.437,3.437,0,0,1,3.05-1.663,3.352,3.352,0,0,1,2.666,1.044,3.807,3.807,0,0,1,.772,2.508v6.894H49.277v-6.35q0-1.836-1.718-1.836a2.157,2.157,0,0,0-1.545.551,1.918,1.918,0,0,0-.579,1.459v6.176H42.769Z" transform="translate(50.307 75.912)" fill="#101e40"/>
      <path id="Path_34" data-name="Path 34" d="M57.172-24.92v.676h-2.9a1.741,1.741,0,0,1-.309-1.042,3.812,3.812,0,0,1-3.089,1.257,3.227,3.227,0,0,1-2.392-.911,2.726,2.726,0,0,1-.735-2.025A2.848,2.848,0,0,1,49.3-29.707,10.428,10.428,0,0,1,51.9-30.4l2.084-.386-.02-.733c-.011-.682-.529-1.027-1.542-1.027a2.381,2.381,0,0,0-1.38.3,1.525,1.525,0,0,0-.491,1.093H48q.23-3.535,4.362-3.537a5.221,5.221,0,0,1,3.282.814,2.891,2.891,0,0,1,.908,2.334v5.715A.866.866,0,0,0,57.172-24.92Zm-3.186-4.265-1.948.443a2.747,2.747,0,0,0-1.235.559,1.2,1.2,0,0,0-.388.906c0,.735.478,1.1,1.431,1.1q2.064,0,2.122-2.26Z" transform="translate(56.256 75.912)" fill="#101e40"/>
      <path id="Path_35" data-name="Path 35" d="M59.675-34.475H62.2v10.134a3.823,3.823,0,0,1-1.485,3.4,6.161,6.161,0,0,1-3.436.832,5.343,5.343,0,0,1-3.475-.987,2.487,2.487,0,0,1-1.022-1.909h2.738q.329,1.2,1.893,1.2a2.362,2.362,0,0,0,1.659-.617,2.146,2.146,0,0,0,.6-1.678v-1.527a4.882,4.882,0,0,1-1.369,1.253,3.185,3.185,0,0,1-1.547.351,3.669,3.669,0,0,1-3.144-1.624,5.8,5.8,0,0,1-1.025-3.532,6.125,6.125,0,0,1,1.371-4.131,3.713,3.713,0,0,1,2.9-1.373,3.4,3.4,0,0,1,2.817,1.6ZM57.4-32.467a1.8,1.8,0,0,0-1.556.886,4.128,4.128,0,0,0-.588,2.317,3.735,3.735,0,0,0,.588,2.2,1.826,1.826,0,0,0,1.556.829,2.01,2.01,0,0,0,1.661-.849,3.491,3.491,0,0,0,.617-2.2,3.753,3.753,0,0,0-.713-2.416A1.925,1.925,0,0,0,57.4-32.467Z" transform="translate(62.034 75.912)" fill="#101e40"/>
      <path id="Path_36" data-name="Path 36" d="M67.37-28.665H60.5a3.749,3.749,0,0,0,.388,1.757,1.942,1.942,0,0,0,1.755.849,1.945,1.945,0,0,0,1.99-1.233h2.624a4.271,4.271,0,0,1-1.727,2.383,5.2,5.2,0,0,1-3,.88A4.343,4.343,0,0,1,58.934-25.6a5.6,5.6,0,0,1-1.1-3.609,5.827,5.827,0,0,1,1.428-4.208,4.427,4.427,0,0,1,3.3-1.277,4.879,4.879,0,0,1,2.74.774,4.206,4.206,0,0,1,1.678,2.161,7.4,7.4,0,0,1,.406,2.607C67.39-29.016,67.386-28.858,67.37-28.665ZM64.612-30.42c-.132-1.5-.818-2.24-2.067-2.24-1.172,0-1.841.744-2.01,2.24Z" transform="translate(68.296 75.912)" fill="#101e40"/>
      <path id="Path_37" data-name="Path 37" d="M63.044-34.475h2.644v1.235a3.519,3.519,0,0,1,2.8-1.45,2.875,2.875,0,0,1,2.782,1.507,3.609,3.609,0,0,1,2.993-1.507,3.3,3.3,0,0,1,2.4.843,3.114,3.114,0,0,1,.858,2.328v7.275H74.879V-31.1q0-1.333-1.446-1.332A1.722,1.722,0,0,0,72.1-31.9a2.117,2.117,0,0,0-.483,1.479v6.176H68.95V-31.1q0-1.333-1.426-1.332a1.714,1.714,0,0,0-1.332.531,2.107,2.107,0,0,0-.483,1.479v6.176H63.044Z" transform="translate(74.516 75.912)" fill="#101e40"/>
      <path id="Path_38" data-name="Path 38" d="M80.009-28.665H73.137a3.754,3.754,0,0,0,.386,1.757,1.949,1.949,0,0,0,1.757.849,1.94,1.94,0,0,0,1.988-1.233h2.626a4.271,4.271,0,0,1-1.727,2.383,5.2,5.2,0,0,1-3,.88A4.343,4.343,0,0,1,71.572-25.6a5.583,5.583,0,0,1-1.1-3.609A5.828,5.828,0,0,1,71.9-33.413a4.426,4.426,0,0,1,3.3-1.277,4.866,4.866,0,0,1,2.738.774,4.2,4.2,0,0,1,1.681,2.161,7.4,7.4,0,0,1,.406,2.607C80.028-29.016,80.022-28.858,80.009-28.665Zm-2.76-1.755c-.129-1.5-.818-2.24-2.065-2.24-1.172,0-1.841.744-2.01,2.24Z" transform="translate(83.384 75.912)" fill="#101e40"/>
      <path id="Path_39" data-name="Path 39" d="M75.679-34.475h2.666v1.448a3.435,3.435,0,0,1,3.05-1.663,3.355,3.355,0,0,1,2.666,1.044,3.807,3.807,0,0,1,.772,2.508v6.894H82.187v-6.35q0-1.836-1.718-1.836a2.153,2.153,0,0,0-1.545.551,1.919,1.919,0,0,0-.579,1.459v6.176H75.679Z" transform="translate(89.603 75.912)" fill="#101e40"/>
      <path id="Path_40" data-name="Path 40" d="M86.321-32.837v1.755H84.526v5.7a1.126,1.126,0,0,0,.2.77,1.021,1.021,0,0,0,.744.213,2.735,2.735,0,0,0,1.139-.347.771.771,0,0,1,.094-.059l.309,1.814a5.692,5.692,0,0,1-2.549.6q-2.6,0-2.6-2.4v-6.295H80.546v-1.755H81.86v-1.7l2.666-1.525v3.225Z" transform="translate(95.415 74.274)" fill="#101e40"/>
      <path id="Path_41" data-name="Path 41" d="M97.613-31.5h-2.7a2.775,2.775,0,0,0-2.953-2.394,3.137,3.137,0,0,0-2.762,1.426,5.994,5.994,0,0,0-.829,3.344,5.44,5.44,0,0,0,1.042,3.592,3.063,3.063,0,0,0,2.453,1.06,3.11,3.11,0,0,0,2.124-.693,2.942,2.942,0,0,0,.926-1.99h2.762a4.948,4.948,0,0,1-1.933,3.879,6.267,6.267,0,0,1-3.958,1.2A5.733,5.733,0,0,1,87-24.24a7.782,7.782,0,0,1-1.47-4.945,7.361,7.361,0,0,1,1.933-5.443,5.888,5.888,0,0,1,4.382-1.7,5.72,5.72,0,0,1,4.844,2.141A4.9,4.9,0,0,1,97.613-31.5Z" transform="translate(101.361 73.96)" fill="#101e40"/>
      <path id="Path_42" data-name="Path 42" d="M96.743-34.69a4.781,4.781,0,0,1,3.883,1.624,5.554,5.554,0,0,1,1.176,3.708,5.328,5.328,0,0,1-1.527,4.092,4.979,4.979,0,0,1-3.532,1.237,4.8,4.8,0,0,1-3.881-1.6,5.635,5.635,0,0,1-1.176-3.725,5.306,5.306,0,0,1,1.527-4.074A4.939,4.939,0,0,1,96.743-34.69Zm0,2.144a2.068,2.068,0,0,0-1.735.88,3.764,3.764,0,0,0-.656,2.308,3.714,3.714,0,0,0,.733,2.433,2.111,2.111,0,0,0,1.659.753,2.085,2.085,0,0,0,1.749-.88,3.722,3.722,0,0,0,.665-2.306,3.618,3.618,0,0,0-.753-2.416A2.09,2.09,0,0,0,96.743-32.546Z" transform="translate(108.716 75.912)" fill="#101e40"/>
      <path id="Path_43" data-name="Path 43" d="M97.194-34.475H99.86v1.448a3.437,3.437,0,0,1,3.05-1.663,3.355,3.355,0,0,1,2.666,1.044,3.807,3.807,0,0,1,.772,2.508v6.894H103.7v-6.35q0-1.836-1.718-1.836a2.157,2.157,0,0,0-1.545.551,1.919,1.919,0,0,0-.579,1.459v6.176H97.194Z" transform="translate(115.293 75.912)" fill="#101e40"/>
      <path id="Path_44" data-name="Path 44" d="M111.427-31.465h-2.7a.979.979,0,0,0-.443-.878,2.986,2.986,0,0,0-1.466-.261q-1.527,0-1.527.889c0,.347.312.606.928.77l3.359.948a2.447,2.447,0,0,1,2.008,2.547,3.075,3.075,0,0,1-1.216,2.53,5.235,5.235,0,0,1-3.282.891,6.927,6.927,0,0,1-3.765-.775,2.791,2.791,0,0,1-1.2-2.374h2.642a1.087,1.087,0,0,0,.551.849,4.122,4.122,0,0,0,1.613.213c1.327,0,1.988-.316,1.988-.946,0-.373-.294-.652-.886-.832l-3.168-.965a3.778,3.778,0,0,1-1.659-.849,2.231,2.231,0,0,1-.579-1.624,2.984,2.984,0,0,1,1.275-2.585,5.057,5.057,0,0,1,2.933-.774,5.554,5.554,0,0,1,3.475.987A2.765,2.765,0,0,1,111.427-31.465Z" transform="translate(121.18 75.912)" fill="#101e40"/>
      <path id="Path_45" data-name="Path 45" d="M116.4-24.361h-2.646v-1.448a3.456,3.456,0,0,1-3.067,1.663,3.349,3.349,0,0,1-2.666-1.044,3.72,3.72,0,0,1-.775-2.492v-6.909h2.666v6.35q0,1.836,1.7,1.836a2.227,2.227,0,0,0,1.553-.54,1.9,1.9,0,0,0,.588-1.47v-6.176H116.4Z" transform="translate(127.292 76.029)" fill="#101e40"/>
      <path id="Path_46" data-name="Path 46" d="M115.25-36.23v13.825h-2.664V-36.23Z" transform="translate(133.672 74.073)" fill="#101e40"/>
      <path id="Path_47" data-name="Path 47" d="M120.322-32.837v1.755h-1.8v5.7a1.126,1.126,0,0,0,.2.77,1.024,1.024,0,0,0,.744.213,2.752,2.752,0,0,0,1.141-.347,1,1,0,0,1,.092-.059l.312,1.814a5.705,5.705,0,0,1-2.549.6q-2.607,0-2.607-2.4v-6.295h-1.312v-1.755h1.312v-1.7l2.666-1.525v3.225Z" transform="translate(136.013 74.274)" fill="#101e40"/>
      <path id="Path_48" data-name="Path 48" d="M120.96-32.678v10.231H118.3V-32.678Zm-1.349-3.517a1.178,1.178,0,0,1,.878.371,1.218,1.218,0,0,1,.358.886,1.191,1.191,0,0,1-.358.878,1.191,1.191,0,0,1-.878.358,1.232,1.232,0,0,1-.891-.358,1.183,1.183,0,0,1-.366-.878,1.209,1.209,0,0,1,.366-.886A1.218,1.218,0,0,1,119.61-36.195Z" transform="translate(140.49 74.115)" fill="#101e40"/>
      <path id="Path_49" data-name="Path 49" d="M120.681-34.475h2.666v1.448a3.431,3.431,0,0,1,3.048-1.663,3.352,3.352,0,0,1,2.666,1.044,3.807,3.807,0,0,1,.772,2.508v6.894h-2.644v-6.35q0-1.836-1.72-1.836a2.148,2.148,0,0,0-1.542.551,1.918,1.918,0,0,0-.579,1.459v6.176h-2.666Z" transform="translate(143.338 75.912)" fill="#101e40"/>
      <path id="Path_50" data-name="Path 50" d="M132.782-34.475h2.528v10.134a3.823,3.823,0,0,1-1.485,3.4,6.161,6.161,0,0,1-3.436.832,5.347,5.347,0,0,1-3.475-.987,2.494,2.494,0,0,1-1.022-1.909h2.738q.329,1.2,1.893,1.2a2.358,2.358,0,0,0,1.659-.617,2.147,2.147,0,0,0,.6-1.678v-1.527a4.915,4.915,0,0,1-1.371,1.253,3.176,3.176,0,0,1-1.545.351,3.67,3.67,0,0,1-3.146-1.624,5.8,5.8,0,0,1-1.022-3.532,6.124,6.124,0,0,1,1.369-4.131,3.712,3.712,0,0,1,2.9-1.373,3.4,3.4,0,0,1,2.819,1.6Zm-2.28,2.008a1.8,1.8,0,0,0-1.556.886,4.146,4.146,0,0,0-.588,2.317,3.75,3.75,0,0,0,.588,2.2,1.826,1.826,0,0,0,1.556.829,2.014,2.014,0,0,0,1.663-.849,3.5,3.5,0,0,0,.617-2.2,3.766,3.766,0,0,0-.713-2.416A1.929,1.929,0,0,0,130.5-32.467Z" transform="translate(149.327 75.912)" fill="#101e40"/>
    </g>
  </g>
</svg>
