<svg width="139" height="26" viewBox="0 0 139 26" fill="none" xmlns="http://www.w3.org/2000/svg">
<path d="M55.1174 0.0984612C49.7437 0.0984612 45.4053 4.43179 45.4053 9.79922C45.4053 15.1666 49.7437 19.5 55.1174 19.5C60.4912 19.5 64.8296 15.1666 64.8296 9.79922C64.8296 4.43179 60.4912 0.0984612 55.1174 0.0984612ZM55.1174 15.2159C52.1101 15.2159 49.6944 12.803 49.6944 9.79922C49.6944 6.79543 52.1101 4.38255 55.1174 4.38255C58.1247 4.38255 60.5405 6.79543 60.5405 9.79922C60.5405 12.803 58.0754 15.2159 55.1174 15.2159Z" fill="#FFCE00"/>
<path d="M15.1352 0.0984859C15.1352 3.10227 12.7195 5.51515 9.71216 5.51515C6.70484 5.51515 4.28913 3.10227 4.28913 0.0984859H0C0 5.46591 4.33843 9.79924 9.71216 9.79924C15.0859 9.79924 19.4243 5.46591 19.4243 0.0984859H15.1352Z" fill="#FFCE00"/>
<path d="M38.898 9.79922V0.0984612H34.5596V9.79922C34.5596 15.1666 38.898 19.5 44.2717 19.5V15.1666C41.3137 15.2159 38.898 12.803 38.898 9.79922Z" fill="#FFCE00"/>
<path d="M11.8814 11.9659H7.54297V19.5H11.8814V11.9659Z" fill="#FFCE00"/>
<path d="M19.4238 9.79924C19.4238 15.1667 23.7622 19.5 29.136 19.5H31.3052V15.1667H29.136C26.9174 15.1667 24.9947 13.8371 24.2059 11.9167H31.3052V7.58333H24.2059C25.044 5.66288 26.9667 4.33333 29.136 4.33333H31.3052V0H29.136C23.8115 0.0984848 19.4238 4.43182 19.4238 9.79924Z" fill="#FFCE00"/>
<path d="M133.998 4.38255V9.79922C133.998 12.803 131.582 15.2159 128.575 15.2159C125.568 15.2159 123.152 12.803 123.152 9.79922V0.0984612H118.814V9.79922C118.814 12.803 116.398 15.2159 113.391 15.2159H83.1203C80.113 15.2159 77.6973 12.803 77.6973 9.79922C77.6973 6.79543 80.113 4.38255 83.1203 4.38255C86.1276 4.38255 88.5434 6.79543 88.5434 9.79922C88.5434 11.0303 88.149 12.1136 87.4588 13.0492H92.2902C92.6353 12.0151 92.8325 10.9318 92.8325 9.79922C92.8325 4.43179 88.4941 0.0984612 83.1203 0.0984612C77.7466 0.0984612 73.4082 4.43179 73.4082 9.79922C73.4082 14.5265 76.7606 18.4659 81.2469 19.3522L76.7606 23.8333H82.8738L87.2123 19.5H113.44C116.497 19.5 119.208 18.0719 120.983 15.9053C122.758 18.1212 125.469 19.5 128.526 19.5C133.9 19.5 138.238 15.1666 138.238 9.79922V4.38255H133.998Z" fill="#FFCE00"/>
<path d="M132.913 21.6667C131.73 21.6667 130.744 22.6515 130.744 23.8333C130.744 25.0152 131.73 26 132.913 26C134.097 26 135.083 25.0152 135.083 23.8333C135.083 22.6515 134.097 21.6667 132.913 21.6667Z" fill="#FFCE00"/>
<path d="M126.455 21.6667C125.272 21.6667 124.286 22.6515 124.286 23.8333C124.286 25.0152 125.272 26 126.455 26C127.639 26 128.625 25.0152 128.625 23.8333C128.625 22.6515 127.639 21.6667 126.455 21.6667Z" fill="#FFCE00"/>
</svg>
