<svg width="161" height="41" viewBox="0 0 161 41" fill="none" xmlns="http://www.w3.org/2000/svg">
<g clip-path="url(#clip0_66_95)">
<path d="M3.61294 15.1599H2.42627V16.5122H3.61294V15.1599Z" fill="#244C5A"/>
<path d="M5.95877 15.1599H4.78589V16.5122H5.95877V15.1599Z" fill="#244C5A"/>
<path d="M12.0118 26.3413H10.7423V27.7074H12.0118V26.3413Z" fill="#244C5A"/>
<path d="M16.2525 26.3413H15.0658V27.6798H16.2525V26.3413Z" fill="#244C5A"/>
<path d="M18.6072 26.3413H17.4343V27.6798H18.6072V26.3413Z" fill="#244C5A"/>
<path d="M54.2215 25.0029V18.0346H52.8969V23.8162H49.1391H47.8144V15.0771H46.4897V25.0029H49.1391H54.2215Z" fill="#244C5A"/>
<path d="M52.8921 26.3413H51.6227V27.7074H52.8921V26.3413Z" fill="#244C5A"/>
<path d="M55.6381 28.434C55.8702 28.4605 56.1036 28.4743 56.3372 28.4754C56.6764 28.4961 57.015 28.426 57.3181 28.2724C57.6213 28.1188 57.878 27.8872 58.062 27.6015C58.4898 26.8349 58.6893 25.9619 58.637 25.0856V18.0483H57.3261V25.3662C57.3541 25.8563 57.2425 26.3444 57.0041 26.7736C56.9059 26.9347 56.766 27.0663 56.5993 27.1545C56.4325 27.2427 56.2451 27.2844 56.0566 27.275C55.8634 27.275 55.1735 27.2428 54.8654 27.2152L55.3253 28.4064L55.6381 28.434Z" fill="#244C5A"/>
<path d="M61.6175 15.0725C61.5686 15.0076 61.5342 14.9329 61.5168 14.8536C61.4993 14.7742 61.4991 14.692 61.5163 14.6126C61.522 14.5447 61.5427 14.479 61.5769 14.4201C61.6111 14.3613 61.658 14.3108 61.7141 14.2722C61.7737 14.2268 61.8421 14.1944 61.915 14.1769C61.9878 14.1595 62.0635 14.1575 62.1372 14.171C62.2228 14.1839 62.3053 14.2119 62.381 14.2538C62.44 14.2877 62.4942 14.3295 62.542 14.378L62.7122 13.9548C62.5231 13.776 62.284 13.6589 62.0268 13.6191C61.9009 13.5964 61.7717 13.6002 61.6473 13.6303C61.523 13.6604 61.4063 13.7161 61.3047 13.7938C61.112 13.9403 60.9847 14.1568 60.9506 14.3964C60.931 14.532 60.942 14.6703 60.9827 14.8011C61.0088 14.9254 61.0712 15.0391 61.1621 15.1277L60.6056 15.1829L60.7574 15.6061L62.8501 15.4957L62.8042 14.9943L61.6175 15.0725Z" fill="#244C5A"/>
<path d="M62.6661 16.2776H61.3414V25.0029H62.6661V16.2776Z" fill="#244C5A"/>
<path d="M72.8449 15.1599H71.672V16.5122H72.8449V15.1599Z" fill="#244C5A"/>
<path d="M70.4899 15.1599H69.3032V16.5122H70.4899V15.1599Z" fill="#244C5A"/>
<path d="M101.679 12.667H100.534V13.9365H101.679V12.667Z" fill="#244C5A"/>
<path d="M102.847 15.1876H101.675V16.5123H102.847V15.1876Z" fill="#244C5A"/>
<path d="M105.805 19.7548C105.718 19.1568 105.617 18.5819 105.506 18.0345L104.388 18.0759C104.542 19.4589 104.617 20.4769 104.614 21.13V23.8161H102.714C102.522 23.8152 102.332 23.7728 102.158 23.6919C101.993 23.6194 101.838 23.5251 101.698 23.4114C101.824 22.9484 101.884 22.4699 101.877 21.9901V18.7291H100.552V22.0039C100.569 22.4535 100.471 22.8998 100.267 23.301C100.181 23.4675 100.048 23.6051 99.8847 23.6967C99.7212 23.7883 99.5343 23.8298 99.3474 23.8161H97.6456V18.7291H96.3209V23.8161H90.5025V18.0483H89.2147V25.3662C89.2418 25.8557 89.1319 26.3431 88.8973 26.7736C88.7999 26.9368 88.6608 27.0709 88.4942 27.1623C88.3276 27.2537 88.1397 27.2989 87.9498 27.2934C87.7566 27.2934 87.522 27.2934 87.2139 27.2934L87.3611 27.6015C87.4944 27.8913 87.591 28.0615 87.7106 28.3283C88.0811 28.3845 88.4579 28.3845 88.8283 28.3283C89.2245 28.2527 89.5849 28.0491 89.854 27.7487C90.0658 27.4648 90.2219 27.1433 90.3139 26.8012C90.4234 26.4001 90.4897 25.9884 90.5117 25.5731C90.5117 25.4444 90.5117 25.3202 90.5117 25.1914V25.0074H99.7935C100.045 25.0177 100.296 24.9733 100.529 24.8772C100.761 24.7811 100.97 24.6357 101.141 24.4509C101.575 24.8144 102.125 25.0116 102.691 25.0074H105.943V21.13C105.928 20.669 105.882 20.2096 105.805 19.7548Z" fill="#244C5A"/>
<path d="M100.534 15.1876H99.3473V16.5123H100.534V15.1876Z" fill="#244C5A"/>
<path d="M31.3664 18.3198C30.8755 18.029 30.3132 17.8809 29.7427 17.8921C28.8784 17.8853 28.0378 18.1742 27.3602 18.7108C27.0347 18.9733 26.7274 19.2576 26.4403 19.5617C26.3069 19.7043 26.1873 19.8606 26.0677 20.0216C25.9482 20.1826 25.9435 20.1872 25.8838 20.2746L25.709 20.5322V15.0771H24.3843V23.8162H19.9182V18.0346H18.6119V23.8162H13.3225V18.0346H11.9978V23.8162H7.26952V17.9426H4.00847C3.32075 17.8992 2.63153 17.9995 1.98468 18.237C1.51681 18.4591 1.15618 18.8578 0.981988 19.3455C0.740699 20.0174 0.631378 20.7295 0.660023 21.4429C0.628525 22.165 0.742713 22.8862 0.995786 23.5633C1.19767 24.0543 1.5817 24.4482 2.06747 24.6625C2.71132 24.9142 3.40064 25.0285 4.09126 24.9983H32.8796V21.5027C32.8992 20.8299 32.7605 20.1619 32.4749 19.5525C32.2333 19.0424 31.848 18.614 31.3664 18.3198ZM4.22925 23.8392C3.77266 23.8585 3.317 23.7833 2.89079 23.6184C2.56753 23.4744 2.31451 23.2081 2.18706 22.8779C2.02477 22.4224 1.95138 21.9399 1.97088 21.4567C1.95181 20.9878 2.02204 20.5195 2.17786 20.0768C2.22346 19.9156 2.3017 19.7654 2.40772 19.6357C2.51374 19.5059 2.64529 19.3993 2.7942 19.3225C3.24161 19.1913 3.70952 19.1445 4.17405 19.1845H5.96326V23.8162L4.22925 23.8392ZM31.555 23.8392H25.7412V23.4161C25.8018 22.838 25.9819 22.2788 26.2701 21.774C26.6173 21.0716 27.0843 20.435 27.65 19.8928C27.8876 19.6423 28.1726 19.4413 28.4884 19.3016C28.8042 19.1618 29.1445 19.0861 29.4898 19.0787C29.8508 19.0776 30.2053 19.1745 30.5155 19.3593C30.8513 19.5613 31.1225 19.8549 31.2974 20.2056C31.5051 20.6353 31.6076 21.1083 31.5963 21.5855L31.555 23.8392Z" fill="#244C5A"/>
<path d="M38.7763 29.2713C39.511 29.7488 40.3899 29.9539 41.2601 29.8508C42.148 29.7919 43.0286 29.6518 43.891 29.4322L43.7392 28.4112C42.6951 28.5399 41.6464 28.8021 40.6069 28.6457C40.2288 28.6056 39.8699 28.4589 39.572 28.2226C39.3368 27.9916 39.1765 27.6951 39.1121 27.3717C38.9557 26.7093 38.9741 25.8262 39.572 25.3709C39.8553 25.1749 40.1854 25.0575 40.5287 25.0305C41.1589 24.9891 41.6832 25.0029 42.2996 25.0029H44.1762V21.1025V20.2424C44.1762 19.3869 43.9692 18.7798 43.5506 18.4026C43.0585 18.0194 42.4439 17.8282 41.8212 17.8645C41.3036 17.8742 40.7873 17.9188 40.2758 17.9979C39.6502 18.0852 39.0845 18.191 38.5739 18.3106L38.6153 19.2305C40.1301 19.0833 41.096 19.0098 41.513 19.0098C42.4145 19.0098 42.8653 19.4559 42.8653 20.3482V21.0335V23.7932H41.0577C40.5485 23.7778 40.0392 23.821 39.5398 23.922C39.0938 24.0198 38.6861 24.2462 38.3673 24.5732C38.0485 24.9002 37.8325 25.3134 37.746 25.7618C37.5689 26.5253 37.6152 27.3237 37.8794 28.0616C38.0583 28.5414 38.3692 28.9607 38.7763 29.2713Z" fill="#244C5A"/>
<path d="M84.9371 21.8936C84.956 21.121 84.7601 20.3584 84.3713 19.6905C84.1711 19.3794 83.8894 19.1292 83.557 18.967C83.2245 18.8048 82.8539 18.7369 82.4855 18.7706H79.1325C79.1325 18.7706 80.6089 16.3926 81.2299 15.4635H79.9006C79.2797 16.3834 78.1482 18.1818 77.8446 18.6556V18.697C77.8149 18.7554 77.7991 18.82 77.7986 18.8855V19.9526H82.3154C82.5161 19.9498 82.7137 20.003 82.8859 20.1062C83.0581 20.2093 83.1982 20.3584 83.2904 20.5368C83.5098 20.9531 83.619 21.4186 83.6078 21.889V23.8254H74.1328V17.9426H70.8718C70.1856 17.8996 69.4979 17.9998 68.8526 18.237C68.3836 18.4589 68.0214 18.8574 67.8453 19.3455C67.608 20.0183 67.5003 20.73 67.5279 21.4429C67.4975 22.1646 67.6101 22.8852 67.8591 23.5632C68.0729 24.0632 68.4742 24.4595 68.9768 24.6671C69.619 24.9188 70.3068 25.0332 70.996 25.0029H84.9371V21.8936ZM72.8404 23.8162H71.1293C70.7422 23.8277 70.3557 23.7781 69.9841 23.669C69.9177 23.6501 69.853 23.6255 69.7909 23.5954C69.4676 23.4513 69.2146 23.1851 69.0871 22.8549C68.9223 22.4 68.8489 21.917 68.871 21.4337C68.8519 20.9648 68.9221 20.4965 69.078 20.0538C69.1229 19.8966 69.1989 19.75 69.3017 19.6228C69.4044 19.4956 69.5316 19.3903 69.6759 19.3133C69.7857 19.2648 69.9018 19.2323 70.0208 19.2167C70.3705 19.1783 70.7225 19.1644 71.0741 19.1753H72.8404V23.8162Z" fill="#244C5A"/>
<path d="M3.57161 40.1813H2.84949V41H3.57161V40.1813Z" fill="#244C5A"/>
<path d="M5.00211 40.1813H4.28918V41H5.00211V40.1813Z" fill="#244C5A"/>
<path d="M9.45422 38.3184C9.47147 38.6181 9.40286 38.9165 9.25645 39.1785C9.19674 39.2764 9.11196 39.3566 9.01088 39.4108C8.90981 39.465 8.7961 39.4912 8.68151 39.4867C8.56192 39.4867 8.16176 39.4867 7.97778 39.4545L8.22156 40.1766H8.42394C8.57572 40.1766 8.7183 40.1996 8.85169 40.1996C9.05882 40.2123 9.26557 40.1695 9.45069 40.0757C9.63581 39.9819 9.79262 39.8406 9.90498 39.6661C10.1644 39.1974 10.2856 38.6647 10.2545 38.1298V33.8385H9.45422V38.3184Z" fill="#244C5A"/>
<path d="M17.9727 32.0999H17.2598V32.9278H17.9727V32.0999Z" fill="#244C5A"/>
<path d="M16.5329 32.0999H15.8108V32.9278H16.5329V32.0999Z" fill="#244C5A"/>
<path d="M27.7511 37.3711H24.8626C24.5487 37.3693 24.2375 37.3133 23.9427 37.2055C24.3426 36.903 24.6826 36.5286 24.9454 36.1016C25.1668 35.7695 25.2998 35.3864 25.3318 34.9885L25.3639 34.34C25.0224 34.1458 24.6598 33.9915 24.2831 33.8801C23.9215 33.7739 23.5468 33.7197 23.17 33.7191C22.7977 33.7187 22.4273 33.7729 22.0707 33.8801C21.6969 33.9916 21.3373 34.1459 20.999 34.34L21.0266 34.9885C21.0566 35.3868 21.1897 35.7704 21.413 36.1016C21.6749 36.5265 22.0115 36.9004 22.4065 37.2055C22.1193 37.312 21.8158 37.3681 21.5096 37.3711H18.7498V33.9306L18.4509 33.8985C18.0537 33.8557 17.6544 33.8357 17.255 33.8387C16.8294 33.8206 16.4043 33.8862 16.0039 34.0318C15.712 34.163 15.4804 34.3995 15.3554 34.6942C15.2007 35.1131 15.1319 35.5589 15.153 36.005C15.1329 36.4729 15.1983 36.9405 15.3462 37.3849H12.5543V32.0219H11.7494V38.0932H21.528C21.8115 38.0925 22.094 38.0586 22.3697 37.992C22.646 37.9285 22.9145 37.8344 23.17 37.7115C23.4325 37.833 23.7068 37.927 23.9887 37.992C24.269 38.0586 24.5561 38.0925 24.8442 38.0932H28.5238V32.0219H27.7143L27.7511 37.3711ZM17.9633 37.3711H16.2569C16.1658 37.2299 16.0989 37.0744 16.0591 36.9111C15.9993 36.6347 15.973 36.3521 15.9809 36.0694C15.9708 35.7593 16.0064 35.4493 16.0867 35.1495C16.1138 35.0526 16.1598 34.962 16.2222 34.883C16.2846 34.8041 16.3621 34.7383 16.4501 34.6896C16.6923 34.58 16.9575 34.5311 17.2228 34.547C17.3654 34.547 17.6138 34.547 17.9633 34.5884V37.3711ZM23.193 36.8513C22.7935 36.6045 22.4528 36.2733 22.1949 35.8808C21.9624 35.5438 21.8359 35.145 21.8315 34.7356C22.2715 34.5619 22.7385 34.4669 23.2114 34.455C23.684 34.469 24.1507 34.5639 24.5912 34.7356C24.586 35.1441 24.4578 35.5416 24.2233 35.8762C23.9537 36.2714 23.6024 36.604 23.193 36.8513Z" fill="#244C5A"/>
<path d="M31.4538 32.0219H30.6443V38.0978H31.4538V32.0219Z" fill="#244C5A"/>
<path d="M34.5126 38.3184C34.529 38.6175 34.4621 38.9152 34.3194 39.1785C34.2593 39.2771 34.1738 39.3578 34.0718 39.412C33.9699 39.4662 33.8552 39.492 33.7398 39.4867C33.6203 39.4867 33.2523 39.4867 33.0637 39.4499L33.2799 40.1766H33.4869C33.6387 40.1766 33.7812 40.1996 33.91 40.1996C34.1178 40.2121 34.3251 40.1693 34.511 40.0756C34.6968 39.9819 34.8545 39.8406 34.9679 39.6661C35.2255 39.1968 35.3451 38.6642 35.3129 38.1298V33.8385H34.5126V38.3184Z" fill="#244C5A"/>
<path d="M47.5566 32.1322H46.8345V32.9417H47.5566V32.1322Z" fill="#244C5A"/>
<path d="M48.265 30.5729H47.5659V31.3502H48.265V30.5729Z" fill="#244C5A"/>
<path d="M48.9917 32.1322H48.2788V32.9417H48.9917V32.1322Z" fill="#244C5A"/>
<path d="M52.8692 32.0953H52.1562V32.9233H52.8692V32.0953Z" fill="#244C5A"/>
<path d="M51.448 32.0953H50.7258V32.9233H51.448V32.0953Z" fill="#244C5A"/>
<path d="M61.4472 33.8295H60.7665C60.8585 34.6804 60.9045 35.3013 60.9045 35.7015V37.3481H59.4832C59.3656 37.3458 59.2497 37.3192 59.1429 37.2699C59.0409 37.2256 58.9451 37.1684 58.8577 37.0997C58.9346 36.8165 58.9718 36.5239 58.9681 36.2304V34.2572H58.1586V36.2626C58.1675 36.5368 58.1074 36.8088 57.9838 37.0537C57.9331 37.154 57.8544 37.2373 57.7572 37.2937C57.6601 37.35 57.5486 37.3769 57.4364 37.3711H56.19V34.2572H55.3805V37.3711H52.2114V33.8295H51.4065V37.3711H48.3202V33.8295H47.5153V37.3711H44.82C44.6915 37.3744 44.5649 37.3391 44.4566 37.2699C44.3541 37.208 44.2674 37.1229 44.2036 37.0215V35.9636C44.2659 35.3604 44.102 34.7556 43.7437 34.2664C43.53 34.0737 43.2786 33.9276 43.0054 33.8374C42.7322 33.7471 42.4433 33.7146 42.1569 33.7421C41.8638 33.7411 41.5712 33.7673 41.283 33.8203C41.0669 33.8585 40.8545 33.9155 40.6482 33.9904C40.5884 34.2342 40.5332 34.5424 40.478 34.9103C40.3663 35.7281 40.3818 36.5581 40.524 37.3711H37.4608V32.0219H36.6512V38.0932H44.222V37.7436C44.3015 37.8458 44.3999 37.9317 44.5118 37.9966C44.6104 38.0567 44.723 38.09 44.8384 38.0932H57.717C57.8708 38.1001 58.0242 38.0732 58.1664 38.0144C58.3087 37.9556 58.4363 37.8663 58.5403 37.7528C58.8051 37.9763 59.1414 38.0971 59.4878 38.0932H61.7324V35.7245C61.7241 35.4423 61.6965 35.1611 61.6496 34.8827C61.576 34.501 61.5162 34.1652 61.4472 33.8295ZM43.3987 37.3711H41.306C41.2738 37.2147 41.2508 37.0123 41.2232 36.7594C41.197 36.5057 41.1847 36.2508 41.1864 35.9958C41.1901 35.5104 41.2316 35.026 41.3106 34.547C41.5463 34.4955 41.7868 34.4693 42.0281 34.4688C42.2165 34.4517 42.4064 34.4734 42.586 34.5328C42.7656 34.5921 42.9311 34.6878 43.0722 34.8138C43.3188 35.1368 43.4353 35.5405 43.3987 35.9452V37.3711Z" fill="#244C5A"/>
<path d="M66.3227 37.3711H64.8417V33.1717H64.0322V37.3711H62.9513V38.0932H67.1231V32.0219H66.3227V37.3711Z" fill="#244C5A"/>
<path d="M69.708 32.0219H68.8984V38.0978H69.708V32.0219Z" fill="#244C5A"/>
<path d="M73.2267 33.6684C72.8446 33.6498 72.4643 33.7306 72.1228 33.9029C71.8467 34.0698 71.6407 34.3314 71.5432 34.6389C71.4139 35.0761 71.3534 35.5307 71.3639 35.9865C71.3461 36.5052 71.4517 37.0207 71.672 37.4906C71.879 37.8953 72.3113 38.0931 72.9691 38.0931H74.1374C74.148 38.3906 74.1155 38.6881 74.0408 38.9762C74.0073 39.1417 73.9097 39.2872 73.7694 39.381C73.6279 39.4556 73.4694 39.4921 73.3095 39.4868C72.808 39.4596 72.3088 39.4012 71.8146 39.312L72.0262 40.0755C72.4709 40.1464 72.9193 40.1909 73.3692 40.2089C73.6259 40.2334 73.8838 40.1787 74.1084 40.052C74.3329 39.9253 74.5132 39.7329 74.6249 39.5006C74.878 38.8652 74.9925 38.183 74.9607 37.4998V33.8478C74.743 33.8018 74.467 33.7604 74.1328 33.7236C73.8319 33.689 73.5295 33.6706 73.2267 33.6684ZM74.1466 37.348H73.2267C73.0599 37.3718 72.8899 37.3466 72.7372 37.2756C72.5845 37.2045 72.4557 37.0907 72.3665 36.9478C72.2174 36.6337 72.1464 36.2881 72.1596 35.9405C72.1327 35.5191 72.2286 35.0989 72.4355 34.7309C72.5559 34.599 72.7057 34.4974 72.8728 34.4343C73.0398 34.3711 73.2193 34.3483 73.3968 34.3675C73.6432 34.3717 73.889 34.3916 74.1328 34.4273L74.1466 37.348Z" fill="#244C5A"/>
<path d="M82.444 38.8888H81.7311V39.7075H82.444V38.8888Z" fill="#244C5A"/>
<path d="M81 38.8888H80.2778V39.7075H81V38.8888Z" fill="#244C5A"/>
<path d="M82.4531 37.371H79.0955V33.8385H78.2952V38.3185C78.3124 38.6182 78.2438 38.9165 78.0974 39.1786C78.0377 39.2765 77.9529 39.3567 77.8518 39.4109C77.7508 39.465 77.637 39.4912 77.5224 39.4867C77.4029 39.4867 77.0165 39.4867 76.8325 39.45L77.0625 40.1767H77.2649C77.4167 40.1767 77.5593 40.1997 77.6926 40.1997C77.8998 40.2123 78.1065 40.1695 78.2916 40.0758C78.4768 39.982 78.6336 39.8406 78.7459 39.6661C79.0075 39.1982 79.1289 38.6649 79.0955 38.1299V38.0747H83.2764V33.8293H82.4531V37.371Z" fill="#244C5A"/>
<path d="M98.4733 32.0999H97.7512V32.9278H98.4733V32.0999Z" fill="#244C5A"/>
<path d="M99.9084 32.0999H99.1954V32.9278H99.9084V32.0999Z" fill="#244C5A"/>
<path d="M105.129 37.3711H103.059V32.0219H102.254V37.3711H99.3886V33.8295H98.5837V37.3711H95.9942V35.9544C96.006 35.5419 95.9209 35.1323 95.7458 34.7586C95.5972 34.4477 95.3625 34.1859 95.0697 34.0042C94.7701 33.8243 94.4255 33.7333 94.0762 33.7421C93.5876 33.7278 93.1104 33.8912 92.7331 34.202C92.304 34.5888 91.9323 35.0348 91.6292 35.5267V32.0219H90.8197V37.3711H88.451V33.8479C88.2363 33.8019 87.9604 33.7605 87.6231 33.7237C87.3177 33.6886 87.0106 33.6702 86.7032 33.6685C86.3225 33.6492 85.9435 33.7301 85.6039 33.9031C85.3255 34.0673 85.1187 34.3298 85.0244 34.639C84.8954 35.0763 84.8334 35.5307 84.8404 35.9866C84.8241 36.5057 84.9313 37.0212 85.1531 37.4907C85.3601 37.8954 85.7925 38.0932 86.4502 38.0932H87.6139C87.6256 38.3905 87.5946 38.6879 87.5219 38.9763C87.4866 39.141 87.3895 39.2859 87.2505 39.3811C87.109 39.4557 86.9505 39.4922 86.7906 39.4869C86.3599 39.4735 85.9309 39.4274 85.5073 39.3489V40.0756C85.952 40.1465 86.4004 40.191 86.8503 40.209C87.0757 40.2277 87.3021 40.1865 87.5064 40.0896C87.7108 39.9926 87.8859 39.8434 88.014 39.657C88.279 39.1782 88.4198 38.6405 88.4234 38.0932H105.929V32.0219H105.129V37.3711ZM87.6507 37.3711H86.7308C86.5641 37.3943 86.3943 37.3689 86.2417 37.2979C86.0891 37.2269 85.9603 37.1134 85.8707 36.9709C85.7253 36.6556 85.6559 36.3106 85.6683 35.9636C85.637 35.5419 85.7332 35.1204 85.9443 34.754C86.0635 34.6219 86.2124 34.5201 86.3788 34.4569C86.5451 34.3937 86.7241 34.371 86.9009 34.3906C87.1488 34.3946 87.3962 34.4145 87.6415 34.4504L87.6507 37.3711ZM95.2031 37.3711H91.6384V37.1227C91.6737 36.7695 91.7834 36.4277 91.9604 36.12C92.1717 35.6893 92.4583 35.2999 92.8067 34.9701C92.9493 34.8176 93.1206 34.6947 93.3108 34.6087C93.5011 34.5226 93.7065 34.4751 93.9152 34.4688C94.1354 34.4668 94.3519 34.5257 94.5407 34.639C94.7389 34.7667 94.898 34.9465 95.0007 35.1587C95.1312 35.4245 95.1943 35.7183 95.1847 36.0142L95.2031 37.3711Z" fill="#244C5A"/>
<path d="M4.73992 35.3793C4.71851 34.9498 4.83804 34.525 5.08029 34.1697C5.18215 34.0658 5.30635 33.9866 5.44343 33.938C5.58052 33.8894 5.72689 33.8726 5.8714 33.8891C6.16117 33.8891 7.03508 33.9535 7.03508 33.9535L7.25586 33.3556C7.25586 33.3556 6.19337 33.1716 5.8392 33.1716C5.5856 33.1564 5.33163 33.1948 5.09387 33.2844C4.85612 33.3739 4.63991 33.5126 4.45935 33.6913C4.07496 34.1659 3.88876 34.7707 3.93961 35.3793V37.0398H6.49694V37.7205C6.5255 37.897 6.50199 38.078 6.42929 38.2414C6.35659 38.4048 6.23784 38.5434 6.08758 38.6404C5.98835 38.681 5.88201 38.7013 5.77481 38.7002C4.77672 38.7002 3.77402 38.7002 2.77593 38.7002H2.50456C2.31142 38.694 2.12112 38.6519 1.94342 38.576C1.76798 38.4761 1.62462 38.3284 1.53013 38.15C1.43564 37.9716 1.39393 37.7699 1.40987 37.5687C1.40987 37.3203 1.40987 37.0674 1.40987 36.819V36.4464C1.40987 36.3958 1.40988 36.1429 1.43287 36.1061C1.1385 36.2119 1.00052 36.267 0.673953 36.3958C0.65627 36.9578 0.677787 37.5203 0.738346 38.0793C0.761624 38.3345 0.841779 38.5812 0.972922 38.8014C1.13971 39.0086 1.34944 39.1771 1.58766 39.2954C1.82587 39.4137 2.08691 39.479 2.35278 39.4867C2.72266 39.5228 3.09426 39.5381 3.46586 39.5327H4.9975C5.60463 39.5327 6.37735 39.6247 6.8373 39.1279C7.00335 38.9353 7.12295 38.7072 7.18686 38.461C7.21842 38.3585 7.24301 38.254 7.26046 38.1482C7.29952 37.9638 7.31803 37.7756 7.31565 37.5871V36.2394H4.76292L4.73992 35.3793Z" fill="#244C5A"/>
<path d="M156.854 1.83981C153.823 1.83981 150.544 2.8471 147.448 5.81379C150.709 4.54432 155.728 4.13036 160.226 5.35383V7.23503C158.71 6.76787 157.15 6.45958 155.571 6.31513C155.323 6.28754 155.074 6.27374 154.826 6.24614C152.24 5.96322 149.624 6.34639 147.228 7.35922C145.79 7.95745 144.46 8.78715 143.29 9.81536C142.614 10.4225 141.952 11.0618 141.317 11.7104C142.631 11.0275 144.036 10.5379 145.489 10.2569C148.883 9.67738 151.855 9.87056 155.364 10.4363C157.019 10.7121 158.646 11.1339 160.226 11.6966V13.5594C159.467 13.3248 158.598 13.0994 157.365 12.8142C155.049 12.292 152.694 11.9597 150.323 11.8208C147.966 11.6716 145.6 11.8763 143.304 12.4279C140.679 13.0046 138.362 14.5376 136.805 16.7284C141.23 15.2106 148.148 14.9438 153.823 16.0523C156.007 16.4758 158.152 17.0804 160.235 17.8599V20.1597C158.759 19.6729 157.256 19.2751 155.732 18.9684C152.994 18.3729 150.214 17.9946 147.416 17.8369C144.609 17.6399 141.788 17.8256 139.031 18.3889C136.336 18.9546 133.972 19.7687 131.598 22.8366C138.958 20.6426 147.195 21.236 155.594 23.4575C156.657 23.7381 158.285 24.2348 159.352 24.5522C159.656 24.635 159.945 24.7316 160.235 24.8282V27.3257C157.591 26.2691 154.84 25.5057 152.03 25.049C148.937 24.4035 145.806 23.9641 142.656 23.7335C139.587 23.4869 136.5 23.5981 133.457 24.0647C132.155 24.2522 130.877 24.576 129.644 25.0306C128.24 24.1748 126.921 23.1859 125.707 22.0777C122.282 18.7942 119.495 14.9048 117.487 10.6065V0H160.226V2.00079C159.107 1.87619 157.98 1.82242 156.854 1.83981Z" fill="#D5BA8C"/>
<path d="M160.226 31.5343V33.0291C155.019 32.2564 153.414 32.1552 148.193 31.0927C143.939 30.2372 140.305 29.6163 136.285 28.1398C135.333 27.7902 134.446 27.4315 133.526 27.0451C139.367 26.8657 145.484 27.6523 151.703 29.1057C152.89 29.3817 154.716 29.8646 155.902 30.1682C157.369 30.538 158.813 30.9941 160.226 31.5343Z" fill="#D5BA8C"/>
<path d="M160.226 36.2717V37.4354C156.358 37.1042 154.067 36.8696 149.978 36.4787C146.345 36.1337 142.711 35.5956 139.105 35.0436C135.499 34.4917 131.865 33.6362 128.485 31.9758C124.045 29.7379 120.258 26.3938 117.487 22.2662V17.1699C121.167 22.6525 125.624 27.0589 131.134 29.699C135.789 31.9206 140.733 32.8221 145.641 33.8018C150.709 34.7953 155.047 35.4162 160.226 36.2717Z" fill="#D5BA8C"/>
<path d="M160.226 39.7949V41C155.944 40.8896 151.662 40.9034 147.379 40.8482C143.566 40.7746 139.753 40.6504 135.954 40.3055C132.919 40.0645 129.901 39.6312 126.921 39.0084C125.815 38.7754 124.73 38.4571 123.674 38.0563C121.285 37.1707 119.157 35.6981 117.487 33.7742V28.2548C117.901 28.7147 118.356 29.1379 118.784 29.5656C119.915 30.7067 121.146 31.7428 122.464 32.6611C125.054 34.4287 127.894 35.7977 130.89 36.7225C135.848 38.2679 140.972 38.7509 146.069 39.0682C150.792 39.3948 155.544 39.588 160.226 39.7949Z" fill="#D5BA8C"/>
</g>
<defs>
<clipPath id="clip0_66_95">
<rect width="159.58" height="41" fill="white" transform="translate(0.655029)"/>
</clipPath>
</defs>
</svg>
