<svg width="1920" height="1080" viewBox="0 0 1920 1080" xmlns="http://www.w3.org/2000/svg"><rect width="1920" height="1080" fill="#23b7d9"/><path d="M 0,1080 C 0,1080 0,108 0,108 C 259.19999999999993,119.06666666666668 518.3999999999999,130.13333333333335 727,131 C 935.6000000000001,131.86666666666665 1093.6000000000001,122.53333333333332 1284,117 C 1474.3999999999999,111.46666666666668 1697.1999999999998,109.73333333333335 1920,108 C 1920,108 1920,1080 1920,1080 Z" fill="#1261a6" opacity="0.06"/><path d="M 0,1080 C 0,1080 0,216 0,216 C 246.53333333333336,198 493.0666666666667,180 720,189 C 946.9333333333333,198 1154.2666666666667,234 1351,243 C 1547.7333333333333,252 1733.8666666666668,234 1920,216 C 1920,216 1920,1080 1920,1080 Z" fill="#1261a6" opacity="0.12"/><path d="M 0,1080 C 0,1080 0,324 0,324 C 206.53333333333336,339.4666666666667 413.0666666666667,354.93333333333334 599,358 C 784.9333333333333,361.06666666666666 950.2666666666667,351.73333333333335 1167,344 C 1383.7333333333333,336.26666666666665 1651.8666666666668,330.1333333333333 1920,324 C 1920,324 1920,1080 1920,1080 Z" fill="#1261a6" opacity="0.18"/><path d="M 0,1080 C 0,1080 0,432 0,432 C 211.19999999999993,422.26666666666665 422.39999999999986,412.53333333333336 635,421 C 847.6000000000001,429.46666666666664 1061.6000000000001,456.1333333333333 1276,461 C 1490.3999999999999,465.8666666666667 1705.1999999999998,448.93333333333334 1920,432 C 1920,432 1920,1080 1920,1080 Z" fill="#1261a6" opacity="0.24"/><path d="M 0,1080 C 0,1080 0,540 0,540 C 210.53333333333336,516.6666666666666 421.0666666666667,493.33333333333326 631,505 C 840.9333333333333,516.6666666666667 1050.2666666666667,563.3333333333334 1265,575 C 1479.7333333333333,586.6666666666666 1699.8666666666668,563.3333333333333 1920,540 C 1920,540 1920,1080 1920,1080 Z" fill="#1261a6" opacity="0.3"/><path d="M 0,1080 C 0,1080 0,648 0,648 C 227.46666666666664,634 454.9333333333333,620 661,618 C 867.0666666666667,616 1051.7333333333333,626 1258,633 C 1464.2666666666667,640 1692.1333333333332,644 1920,648 C 1920,648 1920,1080 1920,1080 Z" fill="#1261a6" opacity="0.36"/><path d="M 0,1080 C 0,1080 0,756 0,756 C 233.59999999999997,739.4666666666667 467.19999999999993,722.9333333333333 707,720 C 946.8000000000001,717.0666666666667 1192.8,727.7333333333333 1396,736 C 1599.2,744.2666666666667 1759.6,750.1333333333333 1920,756 C 1920,756 1920,1080 1920,1080 Z" fill="#1261a6" opacity="0.42"/><path d="M 0,1080 C 0,1080 0,864 0,864 C 259.33333333333337,875.1999999999999 518.6666666666667,886.3999999999999 741,892 C 963.3333333333333,897.6000000000001 1148.6666666666665,897.6000000000001 1339,892 C 1529.3333333333335,886.3999999999999 1724.6666666666667,875.1999999999999 1920,864 C 1920,864 1920,1080 1920,1080 Z" fill="#1261a6" opacity="0.48"/><path d="M 0,1080 C 0,1080 0,972 0,972 C 224.80000000000007,966.9333333333334 449.60000000000014,961.8666666666667 643,967 C 836.3999999999999,972.1333333333333 998.3999999999999,987.4666666666666 1206,990 C 1413.6000000000001,992.5333333333334 1666.8000000000002,982.2666666666667 1920,972 C 1920,972 1920,1080 1920,1080 Z" fill="#1261a6" opacity="0.54"/></svg>