<svg id="visual" viewBox="0 0 900 600" width="900" height="600" xmlns="http://www.w3.org/2000/svg" xmlns:xlink="http://www.w3.org/1999/xlink" version="1.1"><path d="M0 157L13.7 151C27.3 145 54.7 133 82 134C109.3 135 136.7 149 163.8 164C191 179 218 195 245.2 195C272.3 195 299.7 179 327 184C354.3 189 381.7 215 409 210C436.3 205 463.7 169 491 157C518.3 145 545.7 157 573 174C600.3 191 627.7 213 654.8 212C682 211 709 187 736.2 169C763.3 151 790.7 139 818 127C845.3 115 872.7 103 886.3 97L900 91L900 0L886.3 0C872.7 0 845.3 0 818 0C790.7 0 763.3 0 736.2 0C709 0 682 0 654.8 0C627.7 0 600.3 0 573 0C545.7 0 518.3 0 491 0C463.7 0 436.3 0 409 0C381.7 0 354.3 0 327 0C299.7 0 272.3 0 245.2 0C218 0 191 0 163.8 0C136.7 0 109.3 0 82 0C54.7 0 27.3 0 13.7 0L0 0Z" fill="#6198ff"></path><path d="M0 313L13.7 303C27.3 293 54.7 273 82 270C109.3 267 136.7 281 163.8 299C191 317 218 339 245.2 346C272.3 353 299.7 345 327 352C354.3 359 381.7 381 409 375C436.3 369 463.7 335 491 319C518.3 303 545.7 305 573 322C600.3 339 627.7 371 654.8 355C682 339 709 275 736.2 246C763.3 217 790.7 223 818 229C845.3 235 872.7 241 886.3 244L900 247L900 89L886.3 95C872.7 101 845.3 113 818 125C790.7 137 763.3 149 736.2 167C709 185 682 209 654.8 210C627.7 211 600.3 189 573 172C545.7 155 518.3 143 491 155C463.7 167 436.3 203 409 208C381.7 213 354.3 187 327 182C299.7 177 272.3 193 245.2 193C218 193 191 177 163.8 162C136.7 147 109.3 133 82 132C54.7 131 27.3 143 13.7 149L0 155Z" fill="#3c80ff"></path><path d="M0 481L13.7 481C27.3 481 54.7 481 82 478C109.3 475 136.7 469 163.8 470C191 471 218 479 245.2 485C272.3 491 299.7 495 327 495C354.3 495 381.7 491 409 487C436.3 483 463.7 479 491 479C518.3 479 545.7 483 573 487C600.3 491 627.7 495 654.8 485C682 475 709 451 736.2 441C763.3 431 790.7 435 818 438C845.3 441 872.7 443 886.3 444L900 445L900 245L886.3 242C872.7 239 845.3 233 818 227C790.7 221 763.3 215 736.2 244C709 273 682 337 654.8 353C627.7 369 600.3 337 573 320C545.7 303 518.3 301 491 317C463.7 333 436.3 367 409 373C381.7 379 354.3 357 327 350C299.7 343 272.3 351 245.2 344C218 337 191 315 163.8 297C136.7 279 109.3 265 82 268C54.7 271 27.3 291 13.7 301L0 311Z" fill="#0066ff"></path><path d="M0 559L13.7 556C27.3 553 54.7 547 82 542C109.3 537 136.7 533 163.8 532C191 531 218 533 245.2 535C272.3 537 299.7 539 327 542C354.3 545 381.7 549 409 545C436.3 541 463.7 529 491 528C518.3 527 545.7 537 573 543C600.3 549 627.7 551 654.8 551C682 551 709 549 736.2 545C763.3 541 790.7 535 818 533C845.3 531 872.7 533 886.3 534L900 535L900 443L886.3 442C872.7 441 845.3 439 818 436C790.7 433 763.3 429 736.2 439C709 449 682 473 654.8 483C627.7 493 600.3 489 573 485C545.7 481 518.3 477 491 477C463.7 477 436.3 481 409 485C381.7 489 354.3 493 327 493C299.7 493 272.3 489 245.2 483C218 477 191 469 163.8 468C136.7 467 109.3 473 82 476C54.7 479 27.3 479 13.7 479L0 479Z" fill="#0059dd"></path><path d="M0 601L13.7 601C27.3 601 54.7 601 82 601C109.3 601 136.7 601 163.8 601C191 601 218 601 245.2 601C272.3 601 299.7 601 327 601C354.3 601 381.7 601 409 601C436.3 601 463.7 601 491 601C518.3 601 545.7 601 573 601C600.3 601 627.7 601 654.8 601C682 601 709 601 736.2 601C763.3 601 790.7 601 818 601C845.3 601 872.7 601 886.3 601L900 601L900 533L886.3 532C872.7 531 845.3 529 818 531C790.7 533 763.3 539 736.2 543C709 547 682 549 654.8 549C627.7 549 600.3 547 573 541C545.7 535 518.3 525 491 526C463.7 527 436.3 539 409 543C381.7 547 354.3 543 327 540C299.7 537 272.3 535 245.2 533C218 531 191 529 163.8 530C136.7 531 109.3 535 82 540C54.7 545 27.3 551 13.7 554L0 557Z" fill="#004cbb"></path></svg>