<svg xmlns="http://www.w3.org/2000/svg" width="500" height="500" style="width:100%;height:100%;transform:translate3d(0,0,0);content-visibility:visible" viewBox="0 0 500 500"><defs><clipPath id="a"><path d="M0 0h500v500H0z"/></clipPath></defs><g clip-path="url(#a)"><path fill="none" stroke="#393346" stroke-linecap="round" stroke-linejoin="round" stroke-width="7" d="M311.136 268.151v-35.862m-122 35.706v-35.862m89.5 53.396V266.5m-58 19.154v-19.029" style="display:block"/><path fill="#636D78" d="M153.688 144.777h31.54c17.419 0 31.539 14.121 31.539 31.54v10.551a5.7 5.7 0 0 1-5.045 5.662l-11.036 1.277a32.387 32.387 0 0 0-8.768 2.29v.001a58.528 58.528 0 0 1-45.04.046l-.076-.032a33.973 33.973 0 0 0-9.146-2.377l-10.46-1.206a5.701 5.701 0 0 1-5.047-5.663v-10.549c0-17.419 14.12-31.54 31.539-31.54zm15.033-84.153h1.474c12.819 0 23.084 10.627 22.638 23.438l-.737 21.197c-.424 12.196-10.435 21.863-22.638 21.863-12.203 0-22.214-9.667-22.638-21.863l-.737-21.197c-.446-12.811 9.819-23.438 22.638-23.438zm145.555 84.153h31.54c17.419 0 31.539 14.121 31.539 31.54v10.551a5.7 5.7 0 0 1-5.045 5.662l-11.036 1.277a32.387 32.387 0 0 0-8.768 2.29v.001a58.528 58.528 0 0 1-45.04.046l-.076-.032a33.973 33.973 0 0 0-9.146-2.377l-10.46-1.206a5.701 5.701 0 0 1-5.047-5.663v-10.549c0-17.419 14.12-31.54 31.539-31.54zm15.033-84.153h1.474c12.819 0 23.084 10.627 22.638 23.438l-.737 21.197c-.424 12.196-10.435 21.863-22.638 21.863-12.203 0-22.214-9.667-22.638-21.863l-.737-21.197c-.446-12.811 9.819-23.438 22.638-23.438z" style="display:block"/><g style="display:block"><path fill="#393346" d="m311.106 315.626.957 58.128c.566 34.349-26.48 63.329-60.829 63.995-17.21.333-32.904-6.37-44.358-17.452-11.414-11.043-18.618-26.437-18.9-43.575l-.974-59.052a3 3 0 0 1 2.95-3.049l26.867-.442a3 3 0 0 1 3.049 2.95l.933 56.643c.264 15.975 13.077 29.228 29.054 29.298a29.11 29.11 0 0 0 21.12-8.893c5.192-5.366 8.341-12.709 8.208-20.768l-.943-57.242a3 3 0 0 1 2.95-3.049l26.867-.443a3 3 0 0 1 3.049 2.95z"/><path fill="#4AB3FC" d="m219.868 317.126.533 32.376-32.865.541-.534-32.376a3 3 0 0 1 2.95-3.049l26.867-.442a3 3 0 0 1 3.049 2.95z"/><path fill="#92130B" d="m311.106 315.623.533 32.375-32.866.542-.533-32.376a3 3 0 0 1 2.95-3.049l26.867-.443a3 3 0 0 1 3.049 2.95z"/><g opacity=".5" style="mix-blend-mode:multiply"><path fill="#393346" d="M257.234 437.34a60.368 60.368 0 0 1-6.185.412c-17.137.282-32.76-6.412-44.173-17.455-11.414-11.043-18.618-26.437-18.9-43.575l-.44-26.676 12.378-.204.44 26.677c.282 17.137 7.487 32.53 18.9 43.574 10.021 9.696 23.288 16.039 37.98 17.247z" opacity="1"/></g><path fill="#4AB3FC" d="M6.19-17.69v35.38H-6.19v-32.38a3 3 0 0 1 3-3h9.38z" opacity=".5" style="mix-blend-mode:multiply" transform="rotate(-.944 20262.458 -11574.002)"/></g><g class="com" style="display:none"><path/><path/><path/><path/><path/><path/><path/><path/><path/><path/><path/><path/></g></g></svg>