<svg xmlns="http://www.w3.org/2000/svg" width="500" height="500" style="width:100%;height:100%;transform:translate3d(0,0,0);content-visibility:visible" viewBox="0 0 500 500"><defs><clipPath id="a"><path d="M0 0h500v500H0z"/></clipPath></defs><g clip-path="url(#a)"><path fill="#636D78" d="m408.64 284.578-49.822-123.96c-1.561-3.882-6.176-7.05-10.299-7.068l-196.105-.883c-4.123-.018-8.75 3.113-10.328 6.988 0 0-27.832 68.382-51.17 125.728" style="display:block"/><g opacity=".5" style="mix-blend-mode:multiply;display:block"><path fill="#636D78" d="M31.448-60.659c1.231-3.141 3.778-5.868 6.777-7.598l-13.234-.073h-.051c-5.498 0-11.438 3.962-13.542 9.044-.151.365-26.136 66.683-49.357 122.765-.447 1.079-4.424 9.414-3.775 10.386.649.973 10.757-3.226 11.925-3.225l10.706-2.31L31.448-60.659z" opacity="1" style="mix-blend-mode:multiply" transform="matrix(.91497 0 0 .91499 131.019 215.026)"/></g><path fill="#393346" d="M408.95 289.345c0-8.266-6.695-14.96-14.96-14.96H106.16c-8.266 0-14.96 6.694-14.96 14.96v48.545c0 8.228 6.694 14.96 14.96 14.96h287.83c8.265 0 14.96-6.732 14.96-14.96v-48.545z" style="display:block"/><g style="display:block"><path fill="#07A889" d="M241.585 296.786c4.128 0 7.48 3.231 7.48 7.212 0 3.98-3.352 7.213-7.48 7.213s-7.48-3.232-7.48-7.213c0-3.98 3.352-7.212 7.48-7.212z"/><path fill="none" d="M241.585 296.786c4.128 0 7.48 3.231 7.48 7.212 0 3.98-3.352 7.213-7.48 7.213s-7.48-3.232-7.48-7.213c0-3.98 3.352-7.212 7.48-7.212z"/><path fill="#07A889" d="M264.96 296.786c4.128 0 7.48 3.231 7.48 7.212 0 3.98-3.352 7.213-7.48 7.213s-7.48-3.232-7.48-7.213c0-3.98 3.352-7.212 7.48-7.212z"/><path fill="none" d="M264.96 296.786c4.128 0 7.48 3.231 7.48 7.212 0 3.98-3.352 7.213-7.48 7.213s-7.48-3.232-7.48-7.213c0-3.98 3.352-7.212 7.48-7.212z"/><path fill="#07A889" d="M288.335 296.786c4.128 0 7.48 3.231 7.48 7.212 0 3.98-3.352 7.213-7.48 7.213s-7.48-3.232-7.48-7.213c0-3.98 3.352-7.212 7.48-7.212z"/><path fill="none" d="M288.335 296.786c4.128 0 7.48 3.231 7.48 7.212 0 3.98-3.352 7.213-7.48 7.213s-7.48-3.232-7.48-7.213c0-3.98 3.352-7.212 7.48-7.212z"/><path fill="#07A889" d="M311.71 296.786c4.128 0 7.48 3.231 7.48 7.212 0 3.98-3.352 7.213-7.48 7.213s-7.48-3.232-7.48-7.213c0-3.98 3.352-7.212 7.48-7.212z"/><path fill="none" d="M311.71 296.786c4.128 0 7.48 3.231 7.48 7.212 0 3.98-3.352 7.213-7.48 7.213s-7.48-3.232-7.48-7.213c0-3.98 3.352-7.212 7.48-7.212z"/><path fill="#07A889" d="M335.085 296.786c4.128 0 7.48 3.231 7.48 7.212 0 3.98-3.352 7.213-7.48 7.213s-7.48-3.232-7.48-7.213c0-3.98 3.352-7.212 7.48-7.212z"/><path fill="none" d="M335.085 296.786c4.128 0 7.48 3.231 7.48 7.212 0 3.98-3.352 7.213-7.48 7.213s-7.48-3.232-7.48-7.213c0-3.98 3.352-7.212 7.48-7.212z"/><path fill="#07A889" d="M358.46 296.786c4.128 0 7.48 3.231 7.48 7.212 0 3.98-3.352 7.213-7.48 7.213s-7.48-3.232-7.48-7.213c0-3.98 3.352-7.212 7.48-7.212z"/><path fill="none" d="M358.46 296.786c4.128 0 7.48 3.231 7.48 7.212 0 3.98-3.352 7.213-7.48 7.213s-7.48-3.232-7.48-7.213c0-3.98 3.352-7.212 7.48-7.212z"/><path fill="#07A889" d="M381.835 296.786c4.128 0 7.48 3.231 7.48 7.212 0 3.98-3.352 7.213-7.48 7.213s-7.48-3.232-7.48-7.213c0-3.98 3.352-7.212 7.48-7.212z"/><path fill="none" d="M381.835 296.786c4.128 0 7.48 3.231 7.48 7.212 0 3.98-3.352 7.213-7.48 7.213s-7.48-3.232-7.48-7.213c0-3.98 3.352-7.212 7.48-7.212z"/><path fill="#07A889" d="M241.585 320.16c4.128 0 7.48 3.232 7.48 7.213 0 3.98-3.352 7.213-7.48 7.213s-7.48-3.232-7.48-7.213c0-3.98 3.352-7.212 7.48-7.212z"/><path fill="none" d="M241.585 320.16c4.128 0 7.48 3.232 7.48 7.213 0 3.98-3.352 7.213-7.48 7.213s-7.48-3.232-7.48-7.213c0-3.98 3.352-7.212 7.48-7.212z"/><path fill="#07A889" d="M264.96 320.16c4.128 0 7.48 3.232 7.48 7.213 0 3.98-3.352 7.213-7.48 7.213s-7.48-3.232-7.48-7.213c0-3.98 3.352-7.212 7.48-7.212z"/><path fill="none" d="M264.96 320.16c4.128 0 7.48 3.232 7.48 7.213 0 3.98-3.352 7.213-7.48 7.213s-7.48-3.232-7.48-7.213c0-3.98 3.352-7.212 7.48-7.212z"/><path fill="#07A889" d="M288.335 320.16c4.128 0 7.48 3.232 7.48 7.213 0 3.98-3.352 7.213-7.48 7.213s-7.48-3.232-7.48-7.213c0-3.98 3.352-7.212 7.48-7.212z"/><path fill="none" d="M288.335 320.16c4.128 0 7.48 3.232 7.48 7.213 0 3.98-3.352 7.213-7.48 7.213s-7.48-3.232-7.48-7.213c0-3.98 3.352-7.212 7.48-7.212z"/><path fill="#07A889" d="M311.71 320.16c4.128 0 7.48 3.232 7.48 7.213 0 3.98-3.352 7.213-7.48 7.213s-7.48-3.232-7.48-7.213c0-3.98 3.352-7.212 7.48-7.212z"/><path fill="none" d="M311.71 320.16c4.128 0 7.48 3.232 7.48 7.213 0 3.98-3.352 7.213-7.48 7.213s-7.48-3.232-7.48-7.213c0-3.98 3.352-7.212 7.48-7.212z"/><path fill="#07A889" d="M335.085 320.16c4.128 0 7.48 3.232 7.48 7.213 0 3.98-3.352 7.213-7.48 7.213s-7.48-3.232-7.48-7.213c0-3.98 3.352-7.212 7.48-7.212z"/><path fill="none" d="M335.085 320.16c4.128 0 7.48 3.232 7.48 7.213 0 3.98-3.352 7.213-7.48 7.213s-7.48-3.232-7.48-7.213c0-3.98 3.352-7.212 7.48-7.212z"/><path fill="#07A889" d="M358.46 320.16c4.128 0 7.48 3.232 7.48 7.213 0 3.98-3.352 7.213-7.48 7.213s-7.48-3.232-7.48-7.213c0-3.98 3.352-7.212 7.48-7.212z"/><path fill="none" d="M358.46 320.16c4.128 0 7.48 3.232 7.48 7.213 0 3.98-3.352 7.213-7.48 7.213s-7.48-3.232-7.48-7.213c0-3.98 3.352-7.212 7.48-7.212z"/><path fill="#07A889" d="M381.835 320.16c4.128 0 7.48 3.232 7.48 7.213 0 3.98-3.352 7.213-7.48 7.213s-7.48-3.232-7.48-7.213c0-3.98 3.352-7.212 7.48-7.212z"/><path fill="none" d="M381.835 320.16c4.128 0 7.48 3.232 7.48 7.213 0 3.98-3.352 7.213-7.48 7.213s-7.48-3.232-7.48-7.213c0-3.98 3.352-7.212 7.48-7.212z"/><path fill="none" stroke="#FFC638" stroke-width="6.732" d="M136.865 300.49c8.256 0 14.96 6.704 14.96 14.96s-6.704 14.96-14.96 14.96-14.96-6.704-14.96-14.96 6.704-14.96 14.96-14.96z"/></g><g opacity=".5" style="mix-blend-mode:multiply;display:block"><path fill="#393346" d="M10.145 31.36v-61.157c0-4.783 1.154-9.233 3.127-12.934H5.188c-10.179 0-18.46 8.281-18.46 18.46v48.542c0 10.179 8.281 18.46 18.46 18.46h7.323c-1.504-3.365-2.366-7.242-2.366-11.371z" opacity="1" style="mix-blend-mode:multiply" transform="matrix(.91937 0 0 .91922 102.681 313.887)"/></g><path style="display:none"/></g></svg>