<svg xmlns="http://www.w3.org/2000/svg" width="500" height="500" style="width:100%;height:100%;transform:translate3d(0,0,0);content-visibility:visible" viewBox="0 0 500 500"><defs><clipPath id="b"><path d="M0 0h500v500H0z"/></clipPath><path id="a" fill="red" d="M412.097 305.162H87.903V116.078h324.194v189.084z" style="display:block"/><mask id="c" mask-type="alpha"><use xmlns:ns1="http://www.w3.org/1999/xlink" ns1:href="#a"/></mask></defs><g clip-path="url(#b)"><g style="display:block"><path fill="#EBE6EE" d="m302.17 410.289-19.938-17.164-7.594-29.05h-49.276l-7.595 29.05-19.937 17.164h104.34z"/><path fill="#EBE6EE" d="M418.573 364.172H81.427c-10.729 0-19.427-8.698-19.427-19.427V109.601c0-10.729 8.698-19.427 19.427-19.427h337.146c10.729 0 19.427 8.698 19.427 19.427v235.144c0 10.729-8.698 19.427-19.427 19.427z"/><path fill="none" stroke="#EBE6EE" stroke-linecap="round" stroke-linejoin="round" stroke-width="7" d="M418.573 364.172H81.427c-10.729 0-19.427-8.698-19.427-19.427V109.601c0-10.729 8.698-19.427 19.427-19.427h337.146c10.729 0 19.427 8.698 19.427 19.427v235.144c0 10.729-8.698 19.427-19.427 19.427z"/><path fill="#EBE6EE" d="M11.549 84.764c0 6.378-5.171 11.549-11.549 11.549-6.378 0-11.549-5.171-11.549-11.549 0-6.378 5.171-11.549 11.549-11.549 6.378 0 11.549 5.171 11.549 11.549z" style="mix-blend-mode:multiply" transform="translate(250 250)"/></g><path fill="#4AB3FC" d="M162.097 55.162h-324.194v-189.084h324.194V55.162z" style="display:block" transform="translate(250 250)"/><g mask="url(#c)" style="mix-blend-mode:multiply;display:none"><path/></g><g class="com" style="display:none"><path/><path/><path/><path/><path/><path/><path/><path/><path/><path/><path/><path/></g></g></svg>